<svg width="77" height="100" viewBox="0 0 77 100" fill="none" xmlns="http://www.w3.org/2000/svg">
<g clip-path="url(#clip0_683_3220)">
<path d="M76.2881 47.1577C75.9917 46.5508 75.4001 46.1422 74.7267 46.0801C73.6687 46.1117 72.6205 46.2751 71.6028 46.5638C72.3994 38.1912 73.0553 25.1323 69.7287 23.2735L69.526 23.1798H69.2449C68.6206 23.0708 67.9951 23.3356 66.2921 25.1792C63.2619 15.1667 60.684 10.0422 58.6223 9.93346H58.497C56.3516 9.93346 53.863 11.3598 51.0298 14.2135C48.5302 9.16414 45.3224 4.49859 41.5012 0.358006C41.3977 0.257761 41.2757 0.178222 41.1416 0.123742H41.0479C40.879 0.0834271 40.7025 0.0834271 40.5325 0.123742C30.8787 2.31058 26.677 9.04341 24.2407 15.2442C22.335 12.9321 20.8357 11.8861 19.5543 11.9014L19.0541 11.9025H18.7262C15.6023 12.5737 13.5245 18.1502 12.4785 21.6339C12.0023 20.9703 11.3387 20.4647 10.5727 20.1815C9.73265 19.9755 8.84571 20.1411 8.13528 20.6336C7.29193 21.1806 4.77712 22.8521 4.24546 44.0646H4.24655C3.50343 43.8391 2.70911 43.8391 1.96599 44.0646C1.77531 44.1169 1.59227 44.1899 1.41902 44.2836C0.574583 44.8731 0.10496 45.8657 0.184486 46.8922C-0.00292812 57.045 9.55743 66.3396 17.7108 72.4632C17.7108 74.4005 17.9135 79.8367 21.8503 82.3513H21.8514C23.6166 83.3341 25.517 84.0555 27.4902 84.4913L27.9118 98.2846C27.9282 98.8893 28.4153 99.3764 29.0211 99.3928L41.6735 99.7992C42.2576 99.8024 42.7501 99.3644 42.8132 98.7837L44.2657 85.8969H44.2668C46.1333 85.8283 47.977 85.4698 49.7334 84.8345C51.406 84.256 52.8813 83.2154 53.9873 81.8326C55.0921 80.451 55.784 78.7838 55.9823 77.0242C62.3238 74.3067 66.9165 70.7765 69.7595 66.4181C70.0188 66.0356 70.2596 65.639 70.4775 65.2315C75.5082 56.2019 77.6014 49.6108 76.2884 47.1581L76.2881 47.1577ZM65.9313 60.2634L65.416 59.6543L64.979 59.2326L64.4636 58.6704L64.0267 58.2019L63.4176 57.5612L63.0428 57.1711L62.1057 56.2656L61.8551 56.1076L61.1207 55.4669L60.7927 55.1858L60.1836 54.5462L59.8556 54.312L59.1376 53.8282L58.9033 53.6723L58.9022 53.6713C58.3247 53.3128 57.7058 53.0251 57.0597 52.8126H56.8407C56.6304 52.756 56.4168 52.7135 56.2 52.6873H55.9505C55.7532 52.6699 55.5538 52.6699 55.3566 52.6873H55.1387C54.9448 52.7244 54.7562 52.7821 54.5754 52.8595H54.4664L54.2943 52.9848H54.2006L54.0753 53.0785L54.0763 53.0774C53.9282 53.1657 53.7865 53.2648 53.6547 53.3749C53.5272 53.5089 53.4073 53.6495 53.2951 53.7966C53.1567 53.9458 53.026 54.1017 52.9039 54.2651C52.9039 54.3588 52.7634 54.4994 52.7013 54.6083C51.3425 56.7799 50.2017 60.5598 48.7177 65.8083C48.3581 67.0581 47.9997 68.3384 47.6237 69.5729V69.7919L46.9057 68.8701L46.4067 68.6042L44.9847 66.8707L44.5478 66.3553L43.3764 64.9966L42.7521 64.2938L41.6276 63.0287L40.9401 62.2791L39.7524 60.9977L39.1281 60.3417L39.127 60.3406C39.1956 60.2959 39.2588 60.2436 39.3144 60.1848C39.3144 60.1848 43.1105 55.1703 47.4374 50.2029C54.6854 41.9862 58.0285 40.0805 59.4491 39.7056V39.7067C58.9043 41.6298 58.2146 43.5095 57.3876 45.3301C57.2568 45.6036 57.2405 45.9174 57.3418 46.2029C57.4421 46.4883 57.6535 46.7226 57.9259 46.8523C58.4958 47.1247 59.1778 46.8828 59.4491 46.314C60.2554 44.5532 60.9343 42.7358 61.4802 40.878C63.0111 43.6402 64.1061 46.6225 64.7292 49.719C64.8545 50.2192 64.9788 50.7193 65.1041 51.2815L65.213 51.7817L65.4473 52.7972L65.5726 53.4063L65.76 54.3281L65.8853 54.9525L66.0575 55.8274L66.1828 56.4518L66.3386 57.2951L66.4476 57.8726L66.5881 58.7159L66.6818 59.2629L66.8224 60.0594L66.9008 60.5432L67.0262 61.3397V61.7146L66.2296 60.7622L65.9313 60.2634ZM17.2117 53.8587L16.9153 53.5459L15.6655 52.2493L15.3223 51.9061C14.8014 51.3962 14.2806 50.8753 13.7598 50.3436L13.4318 50.1878C12.9524 49.7606 12.4631 49.3389 11.963 48.9227L11.8704 48.7505C11.8704 48.4901 11.9227 48.2243 12.0262 47.954C12.0262 47.6577 12.1515 47.3602 12.2289 47.0486C12.3073 46.7359 12.4163 46.2837 12.5252 45.9078C12.6342 45.5329 12.6811 45.3139 12.7748 45.0176C12.8685 44.7212 13.009 44.2526 13.1343 43.8615L13.4155 42.9865C13.5408 42.5965 13.6813 42.2216 13.8219 41.8305L14.1183 40.9871L14.5552 39.8463L14.8516 39.0651L15.3201 37.9406L15.6165 37.2531L16.1471 36.097L16.3966 35.5664C16.6461 35.0357 16.8968 34.5356 17.1463 34.0039L17.1495 34.0049C17.8611 32.5743 18.6804 31.2013 19.6023 29.897C19.4464 32.2887 19.4159 34.687 19.5086 37.0819C19.5423 37.6878 20.0425 38.1606 20.6494 38.1596C20.9512 38.1443 21.2356 38.0081 21.4371 37.7825C21.6398 37.557 21.7433 37.2595 21.727 36.9566C21.6431 34.7654 21.6681 32.5697 21.8043 30.3809C24.5327 35.7734 26.9887 41.3 29.1625 46.9385L29.7716 48.501L29.8653 48.7353L30.4428 50.1877L30.9734 51.5312V51.687L31.4572 52.9052L31.1761 52.6709L30.7697 52.343L30.0985 51.8276L29.7389 51.5617L29.0514 51.0616L28.8171 50.8894L27.9738 50.3272H27.8485L27.2241 49.9523L27.0051 49.827L26.5518 49.5775L26.3328 49.4685L25.9427 49.2811H25.7553L25.3653 49.1406H25.2563L24.8194 49.0153H23.4465L23.4454 49.0164C23.1828 49.0512 22.9256 49.1199 22.6794 49.219H22.5236C22.2817 49.3247 22.0507 49.4555 21.836 49.6102L21.7271 49.7039C21.5211 49.8597 21.3283 50.033 21.1485 50.2193L21.0548 50.313C20.8521 50.5396 20.6647 50.7804 20.4925 51.031L20.3836 51.2032C20.2114 51.4691 20.0403 51.7502 19.8682 52.0618C19.7124 52.3582 19.5718 52.6862 19.4313 53.0141L19.3376 53.2168C19.2024 53.5502 19.0771 53.888 18.9627 54.2323V54.4197C18.8581 54.7422 18.76 55.0702 18.6663 55.4036V55.5126L18.5726 55.4189C18.1346 54.8893 17.6813 54.3685 17.2128 53.8585L17.2117 53.8587ZM31.6446 28.8651C38.4393 21.8665 42.0318 19.9608 43.5007 19.9139L41.7202 27.8026L41.7213 27.8037C41.6516 28.1001 41.7028 28.4117 41.8641 28.6699C42.0253 28.9282 42.2836 29.1112 42.58 29.1777H42.8306C43.3623 29.1766 43.8232 28.8072 43.9398 28.2875L45.5023 21.6016L45.6581 21.8206C48.939 26.7414 52.6871 37.8008 53.6244 40.6752V40.6742C51.3209 42.6594 49.1504 44.7941 47.1259 47.0636C45.6735 42.2834 43.7831 37.5665 40.0185 34.3958V34.3947C39.915 34.3184 39.7984 34.2596 39.6753 34.2236H39.5347C39.3702 34.1844 39.1991 34.1844 39.0346 34.2236C36.3476 35.1454 33.5517 39.4571 30.6 44.0649C29.0375 40.0814 27.6318 36.989 26.5542 34.5982C27.0228 33.8955 29.0527 31.5363 31.6622 28.9115L31.6446 28.8651ZM37.1743 58.2319C36.55 57.6075 35.9245 56.9974 35.3002 56.4046L34.2378 53.6402L34.1593 53.4376L33.9251 52.8438L33.5502 51.8751L33.3639 51.4218L32.8954 50.2341L32.8017 49.9999L32.271 48.6716L32.1773 48.3905L31.5682 46.828V46.6406L32.271 45.5466V45.5477C33.9142 42.7856 35.796 40.1725 37.8945 37.7374C37.6449 39.7837 37.3475 42.0643 37.3475 42.0643L39.6128 42.3607C39.6128 42.3607 39.9255 39.9243 40.175 37.8148C42.752 40.8299 44.127 44.8753 45.3616 49.1403C41.4096 53.6547 38.1137 57.9978 37.5513 58.6536L37.1743 58.2319ZM24.4443 74.4779C20.3364 71.5884 19.4767 64.1058 20.3986 58.3736C20.3986 58.0925 20.5075 57.843 20.5544 57.5771C20.6012 57.3112 20.6481 57.0769 20.6949 56.8427C20.7418 56.6084 20.8508 56.2652 20.9292 55.9841C21.0077 55.703 21.0229 55.6245 21.0698 55.4687C21.1166 55.3129 21.2724 54.8748 21.3825 54.5785L21.4915 54.2657C21.6168 53.9378 21.7573 53.6567 21.8815 53.3755V53.2502L21.8826 53.2491C22.1485 52.6727 22.507 52.1454 22.945 51.6866C23.8962 54.7898 25.1351 57.7971 26.6474 60.6693C26.9786 61.2076 27.6858 61.3754 28.2251 61.0442C28.7634 60.7118 28.9311 60.0047 28.5999 59.4664C27.2826 56.9658 26.1952 54.3518 25.3508 51.6561C25.8183 51.8773 26.2727 52.1279 26.7096 52.4058L26.8654 52.4995L27.0528 52.6248V52.6237C29.329 54.1884 31.4656 55.9447 33.4422 57.8722L33.5512 57.9812C34.2071 58.6055 34.8631 59.2462 35.5354 59.9185L36.2381 60.6366L37.5032 61.9332L38.2844 62.7765L39.4253 63.9947L40.1902 64.8533L41.2373 66.0247L41.9717 66.868L42.9403 67.9925L43.6115 68.789L44.4701 69.8197L45.0476 70.5541L45.7657 71.476L46.2495 72.1319L46.6559 72.6941V72.7726C46.5001 73.2411 46.3432 73.6628 46.2026 74.054V74.2414C46.062 74.6162 45.9215 74.9758 45.7809 75.2885V75.4291C45.6404 75.7418 45.5151 76.0382 45.3909 76.2877L45.392 76.2899C45.186 76.7159 44.9507 77.1289 44.6892 77.5233L44.4081 77.8829L44.1738 78.1171L43.9864 78.2577C43.034 78.711 41.0031 79.1632 36.8472 78.7883C32.8767 78.3797 29.0575 77.0482 25.694 74.8996L24.4443 74.4779ZM69.5266 62.356L69.3544 61.2468V60.9504L69.2139 60.0449L69.1354 59.5611L68.9012 58.1555L68.7454 57.2653L68.6364 56.6878L68.449 55.7192L68.34 55.1569L68.0589 53.7513V53.5639C67.9543 53.0638 67.8453 52.5429 67.7309 52.0014L67.5119 51.4217L67.2776 50.4215V50.2025C69.0581 49.6402 71.1513 49.0311 72.6821 48.64V48.6411C71.9041 50.258 71.0226 51.8238 70.042 53.3275C69.6715 53.8407 69.787 54.5577 70.3002 54.9282C70.8134 55.2986 71.5304 55.1842 71.9009 54.6699C72.7715 53.3787 73.5593 52.032 74.2599 50.6406C73.2389 54.7486 71.646 58.6916 69.5266 62.356ZM66.6686 48.0319C64.5602 40.2216 62.7166 38.3942 61.482 37.722C60.7705 37.2905 59.9151 37.1608 59.1077 37.3624C61.3414 34.426 64.2943 30.6461 66.5281 27.9895L67.2777 27.1461C67.026 28.6825 66.6229 30.1893 66.0748 31.6451C65.9179 31.9164 65.8798 32.2401 65.9691 32.5397C66.0585 32.8393 66.2677 33.09 66.5466 33.2316C66.8255 33.3732 67.1503 33.394 67.4455 33.2894C67.7397 33.1837 67.9784 32.9625 68.1048 32.6759C68.7346 31.0829 69.1955 29.4288 69.4799 27.7401C70.0377 34.1752 69.9331 40.6497 69.1671 47.0631V47.1568L66.6686 48.0319ZM56.764 12.4642C55.8999 15.1774 55.8182 18.079 56.5297 20.8369C56.7411 21.4449 57.4058 21.7663 58.0138 21.555C58.6229 21.3436 58.9443 20.6789 58.7329 20.0709C58.1761 17.7184 58.284 15.2581 59.0456 12.9635C61.3 17.4614 63.1056 22.1708 64.4336 27.0227C61.4339 30.5683 57.4046 35.8637 55.3583 38.5975C54.0464 34.6609 50.9226 26.0539 47.9544 21.274L48.3761 20.6801L48.5319 20.4611L49.2347 19.5241L49.4221 19.2898L50.1096 18.4312L50.3755 18.1032C50.7035 17.7131 51.0314 17.322 51.391 16.9319C52.8609 15.0937 54.6892 13.5736 56.764 12.4642ZM38.9411 2.65448L37.4571 8.30943V8.30834C37.2991 8.91634 37.6619 9.53852 38.2699 9.69868H38.5663C39.0893 9.70086 39.5469 9.34675 39.6755 8.84008L41.1127 3.32544C44.3543 7.12153 47.0904 11.3221 49.2511 15.8222L49.0637 16.0565L48.6888 16.5098L48.2824 16.9936L47.9392 17.4305L47.5796 17.8838L47.2669 18.2902L46.9541 18.7119L46.7199 19.0246L46.5641 19.2436V19.2425C46.2688 18.884 45.9386 18.5539 45.5802 18.2586C44.0176 17.0241 40.7062 16.6961 31.1941 26.1626H31.193C29.5368 23.053 27.7063 20.0391 25.7102 17.1342C27.7575 11.2765 31.0689 5.16906 38.9414 2.65442L38.9411 2.65448ZM18.1188 14.7131C18.2626 16.8607 18.7529 18.9714 19.5712 20.9608C19.8218 21.5437 20.4963 21.8128 21.0792 21.5622C21.3593 21.4423 21.5794 21.2157 21.6916 20.9335C21.8049 20.6502 21.8006 20.3353 21.6807 20.0553C20.9692 18.3119 20.5421 16.4662 20.4157 14.5875C21.6022 15.6096 22.6515 16.7809 23.5395 18.0709C25.7427 21.2394 27.7454 24.5409 29.5378 27.9591C27.7879 29.7558 26.3203 31.3956 25.4299 32.4112C22.5554 26.4129 21.759 26.3192 21.0714 26.2723C20.3839 26.2254 19.2126 26.1317 16.6039 30.4737C16.0395 28.277 15.2703 26.1381 14.307 24.0854C14.9946 20.773 16.5571 16.4461 18.1185 14.7125L18.1188 14.7131ZM8.62173 24.086C9.02706 25.4011 9.34524 26.7425 9.57406 28.1002C9.57406 28.6581 9.97721 29.1332 10.5275 29.2247H10.7149C11.2739 29.2432 11.7642 28.8521 11.871 28.3029C11.6825 26.4124 11.252 24.5545 10.5896 22.7732C11.1812 23.33 11.6628 23.9924 12.0115 24.7257C13.306 27.4944 14.2757 30.4036 14.9011 33.3958L14.4946 34.2239L14.2451 34.724C13.9956 35.2546 13.7395 35.8125 13.4802 36.3955L13.3549 36.6919C13.1359 37.1756 12.9332 37.6921 12.7142 38.2544L12.4647 38.9103L11.9809 40.1754L11.715 40.925L11.2781 42.1748L11.0122 42.9713C10.8717 43.393 10.7464 43.8147 10.6222 44.2364L10.3879 45.0176C10.2626 45.4709 10.1536 45.9231 10.0283 46.3764C9.90301 46.8297 9.91936 46.8296 9.85616 47.0639V47.2361C9.30918 46.846 8.79378 46.4864 8.29364 46.1584L7.80985 45.8621L6.76274 45.1734L6.52847 45.0329C6.77799 32.8172 7.74666 26.6948 8.59001 24.1015L8.62173 24.086ZM2.49816 47.9223C3.32189 49.7354 4.37118 51.4352 5.622 52.9836C6.09271 53.4151 6.82385 53.3835 7.25534 52.9139C7.68574 52.4432 7.65523 51.712 7.18451 51.2816C6.10253 49.8226 5.18072 48.2515 4.43542 46.5952L4.77865 46.7357L5.02817 46.861L5.02926 46.8599C6.24201 47.468 7.39699 48.1838 8.48115 49.001C8.92898 49.3236 9.38227 49.6722 9.83989 50.0482L11.0276 51.0321L11.434 51.3916L12.2152 52.0792L12.6685 52.5008L13.3713 53.1568L14.4805 54.266L14.9338 54.7498L15.5276 55.3742L15.9493 55.8427L16.4963 56.4671L16.8864 56.9356L17.3865 57.5447L17.7297 57.9816L18.0261 58.388V58.7008C18.0261 58.8097 17.9477 59.3251 17.9172 59.6378C17.8856 59.9506 17.9172 59.9811 17.9172 60.1685V61.1524V61.6362V62.9175V63.105V64.5738V64.9954C17.9172 65.136 17.9172 65.683 18.0261 66.0262C18.1351 66.3694 18.0261 66.3694 18.0261 66.5416C18.0261 66.7138 18.1198 67.1659 18.1819 67.4787L18.2756 67.9788C18.2756 68.3068 18.4314 68.6348 18.5099 68.9475L18.6189 69.3539C18.7442 69.8072 18.8847 70.2441 19.0558 70.6658C11.5266 65.1372 2.88923 56.7797 2.49816 47.9223ZM40.6906 97.5178L30.1629 97.1898L29.8033 84.9742L31.2252 85.2085V87.0052H31.2242C31.2242 87.6394 31.7385 88.1537 32.3726 88.1537C33.0067 88.1537 33.52 87.6394 33.52 87.0052V85.5212C34.8951 85.6933 36.3476 85.8339 37.8469 85.9276L37.3163 88.1297C37.2454 88.4239 37.2956 88.7344 37.4536 88.9916C37.6115 89.2498 37.8654 89.4339 38.1596 89.5048H38.4255C38.9528 89.5048 39.4116 89.143 39.5347 88.6298L40.159 85.9897H41.9863L40.6906 97.5178ZM48.8909 82.7722C46.0164 83.9751 39.518 84.1004 32.5205 83.1002C31.2238 82.928 29.9904 82.7101 28.865 82.4595C26.8492 82.1162 24.8965 81.4745 23.0705 80.5538C20.8837 79.1482 20.2279 76.289 20.0555 74.3061L20.2897 74.4619C21.1233 75.0448 21.9819 75.6179 22.8667 76.1802L23.0541 76.3055H23.1478L24.1317 76.9299H24.1328C27.8003 79.278 31.9682 80.7326 36.3004 81.1792L37.7845 81.2882H41.0336C41.4552 81.2882 41.8617 81.2097 42.2365 81.1476H42.5329L43.3762 80.9602H43.6421C43.9395 80.8741 44.2327 80.7695 44.517 80.6475H45.0945L45.7505 80.5222L46.5317 80.35H46.7039L47.6562 80.1158H47.8589L48.9834 79.8194L50.1394 79.4762H50.3889L51.654 79.0697L51.9351 78.976L53.3102 78.4922H53.3113C52.5169 80.484 50.9079 82.0422 48.8909 82.7722ZM54.4828 75.2581C53.78 75.5545 53.0772 75.8203 52.4049 76.0699L52.406 76.071C50.679 76.6822 48.9226 77.2042 47.141 77.6324L47.3284 77.2576L47.5311 76.8359L47.8438 76.1331L48.0312 75.6646L48.3745 74.7591L48.5466 74.3058C48.7188 73.822 48.8899 73.3219 49.062 72.7433C49.7027 70.806 50.3118 68.6353 50.9057 66.4956C51.1552 65.637 51.4058 64.7152 51.6869 63.7781V63.777C52.3647 61.1391 53.2908 58.5709 54.4524 56.1073C55.2478 58.5883 56.2611 60.9921 57.4825 63.2933C57.8366 63.8196 58.5492 63.9591 59.0755 63.6061C59.6018 63.2519 59.7423 62.5382 59.3882 62.012C58.23 59.7521 57.258 57.4019 56.4822 54.983H56.8723L57.2787 55.1856L57.513 55.3262L57.903 55.5604L58.1689 55.7479L58.5753 56.0442L58.8717 56.2785L59.3086 56.6217L59.6213 56.8876L60.0899 57.294L60.4026 57.5904L60.918 58.0905L61.2307 58.3869L61.8561 59.2324L62.1057 59.4983L62.9022 60.3416L62.9959 60.4506L63.9329 61.4977L64.0267 61.6067L64.87 62.5906L65.1359 62.9186L65.8071 63.7303L66.1666 64.1673L66.7605 64.9169L67.1669 65.4323L67.4633 65.8387C64.7774 69.6513 60.4189 72.8066 54.4828 75.2585L54.4828 75.2581Z" fill="#3E363F"/>
</g>
<defs>
<clipPath id="clip0_683_3220">
<rect width="76.7782" height="100" fill="white"/>
</clipPath>
</defs>
</svg>
