<svg width="18" height="18" viewBox="0 0 18 18" fill="none" xmlns="http://www.w3.org/2000/svg">
<path d="M15.5876 8.71748C15.5876 10.525 14.8695 12.2586 13.5914 13.5367C12.3132 14.8148 10.5797 15.5329 8.77217 15.5329C6.96461 15.5329 5.23109 14.8148 3.95296 13.5367C2.67483 12.2586 1.95678 10.525 1.95678 8.71748C1.95678 6.90993 2.67483 5.17641 3.95296 3.89827C5.23109 2.62014 6.96461 1.90209 8.77217 1.90209C9.41963 1.90209 10.0501 1.9958 10.6464 2.16619L11.9839 0.828666C10.9957 0.419742 9.91375 0.198242 8.77217 0.198242C7.65341 0.198242 6.5456 0.418599 5.512 0.846731C4.47839 1.27486 3.53924 1.90238 2.74816 2.69347C1.15049 4.29114 0.25293 6.45804 0.25293 8.71748C0.25293 10.9769 1.15049 13.1438 2.74816 14.7415C3.53924 15.5326 4.47839 16.1601 5.512 16.5882C6.5456 17.0164 7.65341 17.2367 8.77217 17.2367C11.0316 17.2367 13.1985 16.3392 14.7962 14.7415C16.3938 13.1438 17.2914 10.9769 17.2914 8.71748H15.5876ZM5.2878 7.08179L4.08659 8.29152L7.92024 12.1252L16.4395 3.60594L15.2383 2.39621L7.92024 9.71423L5.2878 7.08179Z" fill="#78A55A"/>
</svg>
