<svg width="18" height="18" viewBox="0 0 18 18" fill="none" xmlns="http://www.w3.org/2000/svg">
<path d="M9.16182 0.34668C4.45705 0.34668 0.642578 4.16115 0.642578 8.86592C0.642578 13.5712 4.45705 17.3852 9.16182 17.3852C13.8671 17.3852 17.6811 13.5718 17.6811 8.86592C17.6811 4.16115 13.8671 0.34668 9.16182 0.34668ZM9.16182 15.7878C5.33883 15.7878 2.23996 12.6889 2.23996 8.86592C2.23996 5.04293 5.33883 1.94406 9.16182 1.94406C12.9848 1.94406 16.0837 5.04293 16.0837 8.86592C16.0837 12.6889 12.9848 15.7878 9.16182 15.7878ZM9.16235 4.08288C8.55218 4.08288 8.0905 4.40131 8.0905 4.91564V9.63316C8.0905 10.148 8.55212 10.4654 9.16235 10.4654C9.75763 10.4654 10.2342 10.1347 10.2342 9.63316V4.91564C10.2341 4.41352 9.75763 4.08288 9.16235 4.08288ZM9.16235 11.5282C8.57613 11.5282 8.09902 12.0053 8.09902 12.592C8.09902 13.1777 8.57613 13.6548 9.16235 13.6548C9.74858 13.6548 10.2252 13.1777 10.2252 12.592C10.2251 12.0052 9.74858 11.5282 9.16235 11.5282Z" fill="#5C71E2"/>
</svg>
