<svg width="100" height="100" viewBox="0 0 100 100" fill="none" xmlns="http://www.w3.org/2000/svg">
<path d="M73.8086 4.97262V4.98044H73.3984C70.3125 5.0859 67.5 5.78708 64.9805 6.87692C67.3242 10.3515 67.8711 13.6836 67.6172 16.6953C68.5156 16.6465 69.2773 16.6367 70.1172 16.6445C71.2109 12.8418 72.5781 8.75387 75.0586 5.00192C74.6289 4.98239 74.2188 4.97067 73.8086 4.97262ZM61.8555 8.50387C59.9805 9.63473 58.3203 10.9668 56.8164 12.3945C57.7539 14.6875 58.6523 17.0254 59.4141 19.3418C60.9375 18.2382 62.4219 17.5429 64.043 17.1699C64.5117 14.3965 64.3164 11.7949 61.8555 8.50387ZM54.1602 15.2265C53.2031 16.3867 52.3242 17.5664 51.5625 18.7129C49.2383 22.207 48.457 24.9414 48.6133 27.0507C48.7695 29.1797 49.7852 30.8789 51.7969 32.5586C53.1641 33.6914 55.4102 33.8281 57.8711 33.2422C58.3398 30.9961 58.1055 27.9882 57.2852 24.6484C56.5625 21.6797 55.4297 18.4492 54.1602 15.2265ZM85.6445 18.6836C84.1992 18.6914 82.7734 18.8906 81.4062 19.3164C82.5 21.9726 82.3633 24.9218 81.6797 27.5195C81.2109 29.2382 80.5273 30.8593 79.707 32.2461C80.7227 32.3242 81.8164 32.4609 82.9688 32.6172C85.625 27.7343 88.125 22.9101 91.2695 19.5293C89.3945 18.9824 87.5 18.6738 85.6445 18.6836ZM69.1602 20.1757C65.9375 20.2343 62.3828 20.7422 60.5469 23.164C60.5859 23.3789 60.6445 23.6132 60.7031 23.8281C61.3867 26.6601 61.7969 29.3945 61.6211 31.914C61.6602 31.875 61.7188 31.8554 61.7773 31.8359C62.5 30.8203 63.3398 29.7851 64.3359 28.7109C65.3516 27.6172 66.4258 26.3672 67.6172 25.0781C68.1641 23.6132 68.6719 21.9531 69.1602 20.1757ZM78.1836 20.7226C75.7617 22.1679 73.4375 24.1797 71.6992 25.9179C72.1875 28.3593 72.8125 30.8203 73.2813 33.1836C73.9063 32.8711 74.5703 32.6172 75.2148 32.4609C76.3281 31.25 77.6562 29.0039 78.2812 26.6211C78.8281 24.5507 78.8867 22.4609 78.1836 20.7226ZM68.7695 29.0625C68.1445 29.7461 67.5195 30.4492 66.9141 31.0937C64.0625 34.1992 62.7539 36.7382 62.4609 38.7109C62.168 40.6836 62.7344 42.207 64.1797 43.8476C64.9414 44.707 66.4258 45.0781 68.2812 44.9804C71.8164 39.2578 70.0586 35 68.7695 29.0625ZM47.8125 33.5547L32.2461 52.9492C32.5781 53.5156 33.1445 54.5507 33.418 54.9609L30.2344 56.3867C27.1289 54.5508 26.1914 48.3593 25.3906 49.8437C22.3828 56.4257 22.9688 61.1132 24.1211 67.4414L21.1523 69.707C21.1133 69.5117 20.6055 67.6953 20.5859 67.5L3.75781 88.457V92.2265L29.1016 68.8281L52.8516 36.8554C51.6797 36.582 50.5664 36.0742 49.5703 35.2539C48.9258 34.7265 48.3398 34.1601 47.8125 33.5547ZM77.7734 35.7031C77.4414 35.7031 77.1289 35.7226 76.8359 35.7422C75.6836 35.8789 74.8047 36.1523 73.8672 36.9336C74.0625 39.2773 73.8867 42.0312 73.1055 43.8867C74.2188 43.4961 75.1953 43.0273 75.8203 42.6562C77.9297 41.4257 79.5898 39.0039 81.25 35.957C80.0586 35.8203 79.0234 35.7031 78.125 35.7031H77.7734ZM96.543 37.2265C93.1641 39.3164 89.5312 40.5664 86.1328 41.582C86.0938 41.9922 86.0352 42.4218 85.9766 42.832C89.1406 42.4609 92.9102 43.3984 95.1563 44.6093C95.8008 42.4609 96.2891 40.0195 96.543 37.2265ZM82.4219 42.6562C81.8359 42.8125 81.2305 43.0078 80.6641 43.1836C79.7852 44.1601 78.7695 45.0195 77.6172 45.7031C76.3477 46.4453 74.5899 47.207 72.5977 47.7734C72.1289 48.4961 71.582 49.5703 71.1523 50.7812C72.0117 50.625 72.9102 50.5273 73.8281 50.5273C75.5859 50.5078 77.4219 50.7422 79.2578 51.1718C80.6836 48.4961 81.8945 45.625 82.4219 42.6562ZM60.4102 44.6679L54.5117 50.1367C54.8438 50.664 55.1953 51.0351 55.3711 51.1328L53.6914 54.2187C51.3086 52.7148 50.1758 48.3398 47.6367 47.8906C45.8789 52.4414 46.3281 56.8359 46.1719 61.1328L42.7344 61.0156L4.45898 96.3476H14.8965L63.9844 47.8906C63.0859 47.5195 62.2656 46.9726 61.5625 46.1914C61.1328 45.7226 60.7617 45.2148 60.4102 44.6679ZM88.2227 46.1523C87.1875 46.1523 86.1523 46.3086 85.0781 46.5429C84.4531 48.5351 83.6133 50.4101 82.7148 52.1679C84.8633 52.8906 86.9922 53.8281 89.0625 54.8242C90.8789 53.1054 92.5781 50.8789 93.9062 47.9101C91.7969 46.6015 90 46.1523 88.2227 46.1523ZM73.9062 54.1211C72.5586 54.1211 71.3281 54.2773 70.2539 54.6484C70.1563 56.25 70.4297 57.6172 71.0938 58.3789C72.5391 60.039 74.0234 60.7812 76.1133 60.8203C78.2031 60.8398 80.9961 60.039 84.5312 58.1054C85 57.8515 85.4688 57.5781 85.9375 57.2656C81.7188 55.4101 77.4219 54.1601 73.9062 54.1211ZM66.8359 57.2265L37.9687 78.4961L19.8828 96.3476H25.5469L26.0352 92.832C33.5547 93.8281 46.4844 95.4101 34.2773 88.6914L36.0742 85.6445C36.6992 86.0156 37.3828 86.4453 38.0859 86.875L69.5898 61.8359C69.1797 61.4843 68.8086 61.0937 68.4375 60.6836C67.5586 59.6679 67.0703 58.4765 66.8359 57.2265Z" fill="#3E363F"/>
</svg>
