<svg width="103" height="100" viewBox="0 0 103 100" fill="none" xmlns="http://www.w3.org/2000/svg">
<g clip-path="url(#clip0_683_3468)">
<path d="M85.1946 0.017334C85.1946 1.42466 85.173 2.80397 85.1084 4.15742C85.4101 4.13587 85.6903 4.12725 85.9704 4.12294C88.0394 4.08414 89.9359 4.3794 91.7247 4.76949C92.048 3.55182 92.479 2.26087 93.0609 0.881558C90.3023 1.04104 87.6946 0.722075 85.1946 0.017334ZM86.0566 7.99578C85.6902 7.99578 85.3023 8.03026 84.8928 8.06475C83.729 23.7716 79.1601 35.7329 72.673 44.957C64.8066 56.1854 54.2463 63.3191 44.0739 68.5992C33.923 73.8794 24.0739 77.3708 17.7161 81.0561C14.5157 82.9096 12.2528 84.7846 11.117 86.7242C10.4058 87.9096 10.0459 89.1596 10.1385 90.6682L15.3109 92.4139C28.4489 89.8061 46.617 83.1898 61.6601 73.2113C70.4316 67.4139 78.1687 60.4958 83.3196 52.6725C88.492 44.8492 91.0997 36.2285 89.8282 26.638L93.6859 26.1423C95.0868 36.7242 92.0911 46.401 86.5523 54.8061C80.992 63.2113 72.8885 70.4311 63.7937 76.4441C48.6213 86.5087 30.7334 93.1898 17.0782 96.0346L15.8174 98.4053C16.77 98.8148 17.8454 99.138 19.0523 99.3966C23.5351 100.323 29.5911 100.173 36.3799 98.7716C49.8713 96.013 66.1213 88.5561 78.8584 77.0044C90.4963 66.4872 98.7721 54.1811 101.488 43.1682C104.225 32.1122 101.768 22.5432 91.7247 15.9053L90.9058 15.36L90.8411 14.388C90.7549 12.6229 90.7118 10.7199 90.9704 8.57983C89.354 8.21992 87.7592 7.96776 86.0566 7.99578ZM80.6471 12.0971C77.6299 23.707 72.3928 32.3277 65.9704 38.7501C57.5437 47.1768 47.2204 51.8751 37.479 55.0432C27.7592 58.2328 18.5351 60.0001 12.3993 62.3061C9.33681 63.4699 7.10836 64.763 5.92517 66.1639C5.23336 66.9613 4.8088 67.7803 4.69242 68.8363L8.94457 70.8191C19.3972 70.2587 33.5351 67.651 46.617 62.7803C55.0222 57.9527 63.2118 51.7027 69.5049 42.7156C74.979 34.9139 79.0954 25.0432 80.6471 12.0971ZM71.5308 24.8923C69.0954 27.1122 66.5308 29.0303 63.8799 30.6466C54.2678 36.4872 43.5566 38.5561 33.686 39.4182C23.8584 40.2803 14.7549 39.957 8.48983 40.7544C5.35836 41.1854 2.98983 41.8966 1.62776 42.888C0.882071 43.4268 0.362675 43.9872 0.0566406 44.7846L3.63423 47.3708C15.2441 49.2889 32.0911 49.763 47.242 46.9397C47.3713 46.9182 47.479 46.8966 47.6084 46.8751C53.1903 44.1596 58.5351 40.6897 63.2118 35.9915C66.3153 32.888 69.1385 29.2242 71.5308 24.8923ZM3.98552 51.3578L2.9338 52.1984C3.50276 52.6294 4.14716 53.0604 4.87776 53.4699C7.52216 54.9785 11.1234 56.2932 15.3411 57.2415C20.3239 55.7329 26.1859 54.3966 32.3066 52.6079C22.0049 53.1897 11.9985 52.6078 3.98552 51.3578ZM26.4661 72.4785C20.6256 73.6423 15.0717 74.3535 10.1558 74.6553L9.09112 76.013C9.80664 76.3794 10.6105 76.7242 11.5114 77.026C12.6493 77.3923 13.923 77.7156 15.3066 77.9527C15.4575 77.8665 15.6084 77.7803 15.7614 77.6941C18.8368 75.9053 22.5006 74.2242 26.4661 72.4785Z" fill="#3E363F"/>
</g>
<defs>
<clipPath id="clip0_683_3468">
<rect width="102.586" height="100" fill="white"/>
</clipPath>
</defs>
</svg>
