<svg width="100" height="100" viewBox="0 0 100 100" fill="none" xmlns="http://www.w3.org/2000/svg">
<path d="M81.8886 19.3793C81.8886 19.3793 81.915 19.7449 81.923 20.4117L81.9261 20.6762C81.9267 20.7697 81.9312 20.8627 81.9214 20.9813C81.901 21.2285 81.8805 21.4758 81.8599 21.7231C81.8353 21.9889 81.8123 22.2881 81.7779 22.5871C81.7425 22.8807 81.7087 23.1963 81.6623 23.5262C81.4445 25.1214 81.1131 26.699 80.6705 28.2469C80.1609 30.0453 79.4441 32.0461 78.4568 34.1535C77.473 36.2623 76.2041 38.4651 74.6472 40.6684C74.4584 40.9494 74.2509 41.2164 74.0468 41.4908L73.7375 41.9026L73.5816 42.1096L73.5425 42.1615C73.6654 42.0485 73.3529 42.3449 73.3795 42.3221L73.3632 42.3438L73.2982 42.4303C72.9533 42.8944 72.5896 43.3483 72.23 43.8158L72.1961 43.8596L72.1482 43.9135L72.0517 44.0217L71.858 44.2385L71.4627 44.6688L70.6574 45.5336L70.4539 45.75L70.2627 45.9459C70.135 46.0774 70.0058 46.2074 69.875 46.3358L69.0861 47.1151C66.9519 49.1824 64.5281 51.1078 61.8955 52.8176C59.2261 54.5461 56.3972 56.0145 53.4474 57.2027C50.4956 58.3953 47.4378 59.3064 44.3146 59.9238C41.2271 60.5305 38.1361 60.8342 35.1521 60.8494C32.1675 60.8658 29.2927 60.6004 26.6214 60.124C25.2845 59.8971 24.0005 59.5873 22.773 59.2688C21.5486 58.9201 20.3785 58.5692 19.2796 58.1516L18.4644 57.8539C18.1964 57.7551 17.9361 57.6367 17.6775 57.5309C17.1607 57.316 16.6599 57.0998 16.1759 56.883C15.6937 56.6594 15.23 56.4266 14.7822 56.2004L14.122 55.866C13.9058 55.7565 13.6986 55.6307 13.4925 55.5166C12.6716 55.0483 11.9119 54.6139 11.2371 54.1533C10.5595 53.701 9.94274 53.2928 9.41012 52.875L8.65621 52.2899L8.00465 51.7594C7.60719 51.4192 7.27945 51.1149 7.015 50.8693C6.48668 50.3783 6.21969 50.0979 6.21969 50.0979C3.73473 47.4867 3.83707 43.3557 6.4482 40.8707C7.49495 39.8713 8.84536 39.25 10.2853 39.1053L11.0681 39.0262C11.0681 39.0262 11.3963 38.993 11.9838 38.9652C12.2773 38.9516 12.6377 38.933 13.049 38.9287L13.7199 38.8895L14.4656 38.861C14.983 38.8561 15.5634 38.8055 16.1744 38.7858C16.7834 38.7733 17.4468 38.7111 18.1334 38.6836C18.8211 38.6531 19.5527 38.577 20.3009 38.542C21.0593 38.4602 21.8349 38.4254 22.6423 38.3309L23.25 38.2705L23.5558 38.2455L23.8654 38.2072L24.4896 38.1309L25.1187 38.067C25.5423 38.0051 25.9697 37.9449 26.3998 37.8963L26.7232 37.8565L27.049 37.8026L27.7037 37.707C29.4566 37.4414 31.2627 37.1195 33.0937 36.7266C36.7562 35.9457 40.5191 34.8828 44.1898 33.5213C46.0228 32.8394 47.831 32.0925 49.6109 31.282C51.3865 30.4783 53.1154 29.6086 54.7996 28.7143L55.4228 28.3699C55.5263 28.3123 55.6306 28.2559 55.7367 28.2016L55.8949 28.1193L56.03 28.0463L56.5697 27.758L56.8418 27.616L56.9804 27.5479L57.0498 27.5139L57.0847 27.4967L57.131 27.4664C57.6257 27.1451 58.107 26.8186 58.5972 26.5117L58.6886 26.4539L58.7115 26.4395C58.7511 26.4045 58.4513 26.6889 58.5869 26.5633L58.6236 26.5406L58.7705 26.4504L59.0638 26.2707L59.6474 25.9121C61.19 24.9504 62.6705 23.9836 64.0414 23.0258C65.3255 22.1307 66.5924 21.2111 67.8414 20.2676C68.9951 19.4022 70.0125 18.5979 70.8736 17.9205C71.0851 17.7492 71.2955 17.5902 71.4896 17.4371C71.681 17.2879 71.8576 17.1604 72.0252 17.0328L72.4921 16.6811C72.565 16.6332 72.6406 16.5641 72.7111 16.5043L72.9119 16.3322C73.4183 15.8985 73.7105 15.677 73.7105 15.677C75.9584 13.9733 79.1617 14.4145 80.8654 16.6623C81.4644 17.4487 81.8201 18.3932 81.8886 19.3793Z" fill="#FFAE2C"/>
<path d="M8.50311 44.8842C7.7035 46.71 6.99549 46.9516 5.11737 46.1292C3.23905 45.3067 2.93651 44.6225 3.73592 42.7967C4.53534 40.971 9.30272 43.0585 8.50311 44.8842Z" fill="#B28E7F"/>
<path d="M86.0175 21.725C86.0175 21.725 86.105 22.1293 86.2201 22.8733L86.2656 23.1684C86.2812 23.2729 86.3009 23.376 86.3089 23.51L86.3581 24.3487C86.3728 24.6496 86.3949 24.9875 86.4038 25.3272C86.4109 25.6608 86.4234 26.0188 86.424 26.395C86.4343 28.212 86.3147 30.0275 86.0662 31.8276C85.7826 33.9182 85.2997 36.2678 84.5316 38.7795C83.7675 41.2922 82.6997 43.9555 81.3105 46.6649C81.1441 47.0088 80.9548 47.3403 80.7702 47.6793L80.4902 48.1887L80.349 48.4448L80.3134 48.509C80.4328 48.3631 80.1306 48.7442 80.1566 48.7143L80.1419 48.7411L80.0831 48.8481C79.7716 49.4215 79.4372 49.9866 79.1097 50.5662L79.0788 50.6203L79.0339 50.6881L78.9433 50.8243L78.7613 51.0973L78.388 51.6409L77.6257 52.7352L77.4328 53.0094L77.2501 53.2586C77.1289 53.4256 77.0046 53.5909 76.879 53.7557L76.1214 54.7518C74.0654 57.4012 71.663 59.9379 68.9931 62.267C66.2852 64.6228 63.3575 66.7134 60.2503 68.51C57.1415 70.3118 53.8695 71.816 50.4779 73.0026C47.1244 74.1711 43.7187 75.002 40.3867 75.4934C37.0542 75.9864 33.7997 76.1465 30.739 76.0389C29.2091 75.9977 27.7251 75.8559 26.3027 75.695C24.8792 75.5 23.5158 75.2938 22.2216 75.002L21.2634 74.7991C20.9484 74.7313 20.6386 74.6405 20.3328 74.5631C19.737 74.4095 19.1433 74.2478 18.5519 74.078C17.9775 73.9047 17.4224 73.7184 16.8859 73.5368L16.0951 73.268C15.8361 73.1799 15.5845 73.0723 15.3361 72.9778C14.8571 72.7909 14.3805 72.5982 13.9062 72.3998C13.4474 72.22 13.0144 72.0078 12.5992 71.8129C11.7701 71.4153 11.016 71.0571 10.3544 70.6748C9.76569 70.3452 9.1826 70.0056 8.60541 69.6561C8.18545 69.3823 7.76996 69.1018 7.35912 68.8145C6.69076 68.3496 6.34779 68.0787 6.34779 68.0787C3.15599 65.5561 2.61361 60.9237 5.13627 57.7319C6.14703 56.4488 7.55717 55.5399 9.1431 55.1493L10.0052 54.9364C10.0052 54.9364 10.3665 54.8469 11.0187 54.7227C11.3445 54.661 11.7441 54.5834 12.2042 54.508C12.6685 54.4141 13.1956 54.3133 13.7753 54.2116C14.3527 54.1239 14.9933 53.975 15.6728 53.8559C16.3513 53.7452 17.0828 53.5703 17.8456 53.4303C18.6093 53.2869 19.4148 53.0856 20.2453 52.9276C20.6676 52.8228 21.0914 52.7245 21.5167 52.6327C21.947 52.5422 22.3847 52.4272 22.8281 52.3194L23.4974 52.1553L23.8351 52.0787L24.1749 51.9868L24.8601 51.8022L25.5529 51.6309L26.2515 51.4274C26.605 51.3315 26.9586 51.2358 27.3122 51.1403L27.6677 51.0284C27.9052 50.9545 28.1445 50.8879 28.3841 50.8174C30.3005 50.242 32.2675 49.5952 34.2509 48.8649C38.2195 47.4102 42.255 45.6243 46.1402 43.5192C48.08 42.4658 49.9817 41.3438 51.8417 40.1551C53.698 38.9748 55.4917 37.7282 57.2314 36.461L57.8732 35.977C57.9797 35.8958 58.0877 35.8164 58.197 35.7389L58.3607 35.6219L58.5001 35.5188L59.0574 35.1108L59.3388 34.9088L59.4829 34.8106L59.5552 34.7616L59.5915 34.7368L59.6384 34.6955C60.1402 34.2578 60.6261 33.8164 61.1249 33.3955L61.2179 33.3162L61.2412 33.2965C61.28 33.2512 60.9902 33.6164 61.1214 33.4547L61.1589 33.4237L61.3087 33.2996L61.6079 33.0522L62.2031 32.5588C63.7738 31.2389 65.2746 29.9235 66.654 28.6352C67.9465 27.4308 69.216 26.202 70.4617 24.9493C71.6132 23.7987 72.6222 22.7385 73.4767 21.8446C73.6857 21.6196 73.8955 21.4084 74.0882 21.2065C74.2785 21.0092 74.4554 20.8389 74.6224 20.6696L75.0882 20.2022C75.1619 20.1371 75.2355 20.0479 75.3046 19.9698L75.5017 19.7455C75.9988 19.1803 76.29 18.8864 76.29 18.8864C78.5308 16.6252 82.1804 16.609 84.4415 18.8498C85.2359 19.6342 85.7836 20.6335 86.0175 21.725Z" fill="#FFB93E"/>
<path d="M8.0709 61.8908C7.46777 64.058 1.80899 62.4832 2.41211 60.316C3.01524 58.1488 3.76797 57.7662 5.99766 58.3867C8.22734 59.0072 8.67402 59.7234 8.0709 61.8908Z" fill="#A07562"/>
<path d="M82.7839 3.80856C82.5579 3.74655 82.3216 3.73139 82.0895 3.76402C81.8486 3.55748 81.5785 3.38755 81.288 3.25973C80.1208 2.7486 78.8521 3.87711 78.2063 4.58453C76.2415 6.73668 80.6632 9.55973 77.5212 14.7582C77.0784 15.4906 77.456 17.3771 78.1317 17.673C78.894 18.0068 79.7923 17.7636 80.4599 17.1164C80.4407 17.1629 80.4228 17.2088 80.4028 17.2556C80.0245 18.1445 80.7464 20.1923 81.5485 20.4156C82.7397 20.747 84.0368 19.9257 84.5636 18.5203C86.0444 14.5677 87.6265 5.15621 82.7839 3.80856Z" fill="#8E6049"/>
<path d="M93.0335 18.852C93.0335 18.852 93.2346 19.1995 93.5667 19.8547L93.6983 20.1147C93.7444 20.2073 93.7934 20.295 93.8432 20.4237L94.1522 21.2182C94.2604 21.5038 94.3868 21.8239 94.5018 22.1465C94.6128 22.4629 94.7358 22.8004 94.8548 23.1594C95.4348 24.8917 95.8969 26.6612 96.2378 28.4559C96.6385 30.5401 96.9409 32.934 97.0352 35.5743C97.1337 38.2141 97.0026 41.0957 96.5932 44.1276C96.5503 44.5088 96.4827 44.8866 96.4215 45.2696L96.3272 45.8457L96.2794 46.1356L96.2673 46.2083C96.3282 46.0196 96.1774 46.5067 96.1913 46.4668L96.1862 46.4967L96.1661 46.6165C96.0614 47.2567 95.9344 47.8979 95.8178 48.5499L95.8067 48.611L95.7872 48.6907L95.7477 48.8506L95.668 49.1715C95.612 49.3858 95.556 49.6001 95.4999 49.8143L95.1518 51.111L95.0628 51.4362L94.9747 51.7334C94.9162 51.9326 94.8556 52.1311 94.7928 52.329L94.4165 53.5268C93.3682 56.7221 91.9827 59.9368 90.2768 63.0479C88.5453 66.1938 86.5239 69.1711 84.2387 71.9411C81.9477 74.7291 79.3889 77.2942 76.6704 79.5688C73.9522 81.8444 71.0737 83.8295 68.1456 85.4754C65.218 87.1235 62.2497 88.4403 59.3682 89.4454C57.9325 89.9594 56.5038 90.3649 55.126 90.7329C53.7348 91.0688 52.3962 91.3748 51.0909 91.578L50.1292 91.7405C49.8126 91.7932 49.4928 91.8227 49.1813 91.8635C48.5571 91.9415 47.9481 92.01 47.3553 92.069C46.7602 92.1198 46.1784 92.1522 45.6157 92.1827L44.7856 92.2266C44.5137 92.2413 44.2417 92.235 43.9772 92.2397C42.9161 92.2442 41.9333 92.2495 41.0188 92.1825C40.1063 92.1249 39.2774 92.0778 38.5254 91.9741L37.4643 91.8346L36.5335 91.6922C35.9561 91.5887 35.467 91.4823 35.0725 91.3963C34.2835 91.2243 33.8669 91.1086 33.8669 91.1086C29.9878 90.0327 27.7155 86.0157 28.7915 82.1368C29.2583 80.4445 30.3223 78.9786 31.7866 78.0104L32.5061 77.535C32.5061 77.535 32.8116 77.3331 33.3766 76.9991C33.659 76.8323 34.0049 76.626 34.4092 76.4051L35.051 76.0137L35.7731 75.5916C36.2825 75.3129 36.8292 74.9547 37.4235 74.6094C38.02 74.2723 38.643 73.8559 39.3087 73.4594C39.9737 73.0596 40.6571 72.5899 41.3799 72.1495C42.087 71.6577 42.837 71.2012 43.5852 70.6661L44.1544 70.2743L44.4436 70.0817L44.7292 69.8739L45.3055 69.4557L45.8934 69.0457L46.4753 68.6038L47.0676 68.1692L47.3659 67.9506L47.6587 67.717L48.2534 67.2588C49.8401 66.0221 51.4444 64.692 53.0268 63.2713C54.609 61.8508 56.1762 60.3485 57.6885 58.7631C59.2016 57.1788 60.6583 55.5122 62.0487 53.7952C64.8217 50.3538 67.3081 46.6926 69.4421 43.0284L69.8327 42.3393C69.8973 42.2247 69.9631 42.1104 70.0319 41.9977L70.1337 41.828L70.2174 41.6809L70.5538 41.0989L70.7253 40.8094L70.8147 40.6659L70.8596 40.5942L70.8821 40.5581L70.9087 40.502C71.1954 39.9049 71.4678 39.3108 71.7575 38.7303L71.8112 38.6213L71.8247 38.5942C71.8448 38.5354 71.6999 39.0034 71.7661 38.7954L71.7874 38.7528L71.8727 38.5827L72.0436 38.2434L72.3827 37.5684C73.2696 35.7713 74.0881 34.0135 74.8047 32.3336C75.4744 30.7688 76.1129 29.1908 76.72 27.6006C77.2821 26.1438 77.7506 24.8264 78.1483 23.7178C78.2432 23.4409 78.3436 23.1764 78.4333 22.9266C78.5221 22.6831 78.6087 22.4733 78.688 22.2655L78.9112 21.6918C78.9499 21.6112 78.9794 21.5 79.009 21.403L79.0934 21.1241C79.3063 20.4209 79.444 20.0438 79.444 20.0438C80.871 16.1372 85.1948 14.1272 89.1012 15.5541C90.8227 16.1825 92.1803 17.3819 93.0335 18.852Z" fill="#FFCE6C"/>
<path d="M91.6974 37.8217C91.6974 37.8217 91.8187 38.3848 91.9414 39.3588C91.9574 39.4807 91.9748 39.609 91.9884 39.7432L92.0111 39.9493L92.0218 40.1793C92.0381 40.4938 92.04 40.8338 92.0492 41.201C92.0537 41.5657 92.055 41.9633 92.0449 42.3698L91.9619 43.6274C91.9058 44.5094 91.7535 45.4461 91.5822 46.443C91.5443 46.694 91.4847 46.9412 91.4269 47.1928L91.2451 47.9559C91.1177 48.4696 90.9941 48.9991 90.8179 49.5182C90.6504 50.0507 90.4761 50.5811 90.2953 51.1092C90.0953 51.6371 89.8771 52.1655 89.6588 52.6995C89.5437 52.9635 89.4425 53.2364 89.3134 53.4955L88.933 54.2795L88.5431 55.0631C88.4164 55.3268 88.2732 55.5809 88.1263 55.8332C87.8381 56.3398 87.545 56.8437 87.2472 57.3448C86.9343 57.8298 86.6149 58.3106 86.2892 58.7871C85.9761 59.2674 85.6283 59.717 85.2857 60.1608C84.9386 60.6012 84.6099 61.0463 84.25 61.4545C83.5322 62.2727 82.8375 63.0584 82.1115 63.7401L81.5822 64.2493C81.407 64.4147 81.239 64.5815 81.0591 64.7321C80.7007 65.034 80.3644 65.3325 80.0259 65.6034C79.3675 66.1623 78.7156 66.6202 78.1386 67.0209C77.8482 67.2194 77.5808 67.4079 77.3246 67.5715C77.086 67.7177 76.8454 67.8604 76.6027 67.9996C76.264 68.1971 75.9206 68.3863 75.5728 68.5672C75.3314 68.6922 75.1998 68.7545 75.1998 68.7545C74.8983 68.8972 74.5595 68.9411 74.2317 68.8798C73.9039 68.8186 73.6038 68.6553 73.3742 68.4134C73.1446 68.1715 72.9973 67.8633 72.9533 67.5327C72.9093 67.2021 72.9708 66.8661 73.1291 66.5725L73.1564 66.5227L73.3486 66.1711C73.4765 65.9454 73.665 65.6168 73.916 65.2159C74.039 65.0127 74.1804 64.7944 74.3338 64.5575C74.4771 64.3108 74.6394 64.0528 74.8097 63.7756C75.1517 63.2229 75.5566 62.6239 75.963 61.9481C76.1666 61.6104 76.3949 61.2752 76.6211 60.9211C76.8418 60.5627 77.064 60.1901 77.3011 59.8157C77.7863 59.0747 78.2492 58.2659 78.7587 57.4582C78.8906 57.2592 79.0086 57.0491 79.1293 56.8389L79.5009 56.21L79.8834 55.5793C80.0132 55.3692 80.1269 55.1485 80.2523 54.9338C80.4945 54.4993 80.7523 54.0704 81.0029 53.6356C81.2396 53.1925 81.4813 52.7521 81.7277 52.3143C81.9832 51.8803 82.197 51.427 82.4349 50.987C82.6677 50.5448 82.9148 50.1108 83.124 49.6645C83.3434 49.2266 83.5666 48.7906 83.7937 48.3567C83.9949 47.9229 84.2023 47.4921 84.4158 47.0643C84.6349 46.6438 84.8162 46.2186 85.0093 45.8057L85.2988 45.1932C85.3981 44.9959 85.4908 44.7954 85.5767 44.592C85.7457 44.2022 85.9194 43.8145 86.0978 43.4289C86.2859 43.0563 86.4259 42.685 86.5779 42.3307L87.0302 41.3118C87.1744 40.992 87.2859 40.693 87.4134 40.4073C87.541 40.1231 87.6537 39.8534 87.772 39.6041L87.8576 39.42L87.9312 39.2262C87.9781 39.0998 88.0273 38.9799 88.0734 38.8661C88.4369 37.9539 88.6957 37.4393 88.6957 37.4393C88.8868 37.0592 89.2211 36.7705 89.625 36.6369C90.029 36.5032 90.4694 36.5355 90.8496 36.7266C91.2984 36.9516 91.5968 37.367 91.6974 37.8217Z" fill="#FFDF95"/>
<path d="M33.226 84.7174C33.4504 86.9559 32.8877 87.5854 30.585 87.8162C28.2822 88.0471 27.6059 87.5418 27.3815 85.3034C27.1571 83.0649 27.7198 82.4354 30.0225 82.2045C32.3252 81.9737 33.0016 82.4789 33.226 84.7174Z" fill="#8E6049"/>
<path d="M86.6474 19.4069C87.8777 19.2836 88.7884 18.0477 88.7691 16.5467C88.715 12.3262 91.9611 5.77248 87.4859 3.48341C82.188 0.773453 78.023 4.4963 77.7795 5.54943C77.0384 8.75392 82.6914 9.27091 84.4744 18.2352C84.663 19.1824 85.8189 19.4899 86.6474 19.4069Z" fill="#966C5A"/>
<path d="M86.0176 9.85077C84.5939 12.1596 86.0191 19.4697 86.6465 19.4068C87.8768 19.2834 91.1539 1.52109 86.0176 9.85077Z" fill="#18937E"/>
</svg>
