<svg width="100" height="100" viewBox="0 0 100 100" fill="none" xmlns="http://www.w3.org/2000/svg">
<path fill-rule="evenodd" clip-rule="evenodd" d="M39.2063 94.3012C39.6688 95.2483 40.4526 96.2885 41.2854 97.0047C42.3032 97.8799 43.5714 98.4988 44.9135 98.9957C45.8507 99.3426 47.0887 99.6449 48.0901 99.8248C49.1278 100.011 50.402 100.008 51.603 99.9947C53.737 99.9713 55.4214 99.7727 57.3223 99.3096C58.52 99.0178 59.6577 98.6938 60.5811 98.3305C62.3247 97.6444 63.4364 96.8826 63.6682 96.3885C63.4942 95.5715 63.2204 94.285 63.0165 93.1287C62.8347 92.0917 62.6837 91.0495 62.5637 90.0035C62.3026 87.7379 62.437 86.1438 62.7264 83.5084C63.1528 79.627 63.9817 77.8588 65.1921 75.5524C66.3479 73.3492 68.2559 70.2701 69.7264 68.2867C71.2594 66.2188 75.0975 62.1774 76.4975 60.6756C76.9858 60.8201 77.9288 61.1346 79.3872 61.4225C80.4985 61.6418 81.7926 61.9033 83.4212 61.8485C87.2985 61.718 88.71 60.9766 90.9655 59.5061C93.012 58.1721 94.97 55.5026 95.9952 52.9444C96.7835 50.9776 97.026 48.9748 96.6831 46.6246C96.4522 45.0438 95.9415 43.1717 95.5333 41.9338C95.0891 40.5873 94.3921 39.1408 93.8067 38.0465C93.8067 38.0465 96.1604 35.234 97.1024 32.8879C97.9134 30.8676 98.2915 28.268 98.1292 26.6432C97.9608 24.9569 96.5294 21.8631 95.6296 20.759C94.4442 19.3043 93.2854 17.7961 91.8212 16.6137C90.386 15.4543 88.7606 14.5055 87.0585 13.7944C85.2946 13.0576 83.1844 12.6311 81.512 12.3373C81.2608 10.9975 80.9147 10.0633 79.9928 8.45119C78.8417 6.38087 77.5772 5.44572 75.5899 3.99064C73.1241 2.18537 69.6874 0.323062 66.3516 0.0679839C64.9145 -0.0417817 62.8079 -0.0870942 60.1587 0.482632C57.8551 0.977945 55.5844 1.91388 53.8579 2.79611C50.3911 1.46837 47.1522 1.66447 44.5971 2.35841C42.4423 2.94337 41.9825 3.29455 40.011 4.4547C38.0755 5.29084 35.9727 7.23517 34.3446 9.48634C28.28 9.65841 23.2317 11.7916 19.6376 13.8313C15.5497 16.1512 11.8811 20.5856 10.4448 23.4063C8.84167 26.5543 7.2405 31.0072 8.59324 37.8938C-0.340749 43.3865 0.578001 52.1727 5.60046 57.0785C10.0051 61.3813 17.3022 62.7217 24.2137 62.0246C26.2786 64.1178 34.0899 73.5813 34.0899 73.5813C34.0899 73.5813 41.9581 82.4483 39.2063 94.3012ZM30.73 57.5957C31.7991 56.5268 32.7155 54.9994 33.4282 53.8285C34.237 53.8735 35.8979 53.9824 37.5311 53.9074C39.1686 53.8321 40.904 53.5903 41.5977 53.1848C41.7925 53.7688 43.1475 58.6063 43.2335 61.5789C43.3464 65.4762 43.2378 66.167 42.6079 67.535C42.2649 67.6971 41.9313 67.7678 41.5104 67.6166C40.011 67.0783 37.5124 65.2059 35.721 63.5346C32.9466 60.9467 30.73 57.5957 30.73 57.5957ZM61.6141 56.7725C61.5604 57.2459 61.526 58.9453 61.7548 60.4297C61.9874 61.9373 62.2155 63.3381 62.7841 63.8822C64.7821 63.5223 66.1774 62.2404 67.3835 61.3404C67.3835 61.3404 71.2975 58.2844 72.0536 57.5826C71.4776 57.0606 70.6676 55.8365 70.3798 55.0987C70.3798 55.0987 67.6253 55.9055 66.2391 56.1936C64.4934 56.5715 62.4421 56.7365 61.6141 56.7725Z" fill="#3E363F"/>
</svg>
