<svg width="85" height="85" viewBox="0 0 85 85" fill="none" xmlns="http://www.w3.org/2000/svg">
<circle cx="42.6095" cy="42.5619" r="33.225" stroke="#5C71E2" stroke-width="17.0385"/>
<g filter="url(#filter0_d_434_953)">
<ellipse cx="42.6952" cy="42.6474" rx="34.1425" ry="34.1425" fill="#FFFDFD"/>
</g>
<path d="M22.0903 37.881L18.7658 40.8075L16.7758 38.5131L22.184 33.9477H25.4616V50.5234H22.0903V37.881ZM29.9052 46.8009L36.3435 41.0182C36.6712 40.7216 36.999 40.386 37.3268 40.0115C37.6545 39.6369 37.8184 39.1998 37.8184 38.7004C37.8184 38.1385 37.6155 37.7015 37.2097 37.3893C36.8039 37.0615 36.3279 36.8977 35.7816 36.8977C35.126 36.8977 34.611 37.1006 34.2364 37.5064C33.8774 37.9122 33.6745 38.4116 33.6277 39.0047L30.1159 38.7472C30.1627 37.8888 30.3422 37.1474 30.6543 36.5231C30.9665 35.8831 31.3801 35.3525 31.8952 34.931C32.4102 34.5096 33.0112 34.1975 33.6979 33.9946C34.4003 33.7761 35.1573 33.6668 35.9689 33.6668C36.7181 33.6668 37.4204 33.7761 38.0759 33.9946C38.7315 34.1975 39.3012 34.5096 39.785 34.931C40.2689 35.3369 40.6435 35.8519 40.9088 36.4762C41.1897 37.1006 41.3302 37.8263 41.3302 38.6536C41.3302 39.1842 41.2756 39.6681 41.1663 40.1051C41.0571 40.5265 40.901 40.9167 40.6981 41.2757C40.5108 41.6191 40.2845 41.939 40.0191 42.2356C39.7538 42.5321 39.4651 42.8209 39.1529 43.1018L34.1193 47.4331H41.4707V50.5234H29.9052V46.8009ZM42.9409 42.2356C42.9409 41.2523 43.0267 40.2534 43.1984 39.2389C43.3857 38.2243 43.7057 37.3035 44.1583 36.4762C44.6266 35.649 45.2587 34.9779 46.0547 34.4628C46.8507 33.9321 47.8652 33.6668 49.0982 33.6668C50.3313 33.6668 51.3458 33.9321 52.1418 34.4628C52.9378 34.9779 53.5621 35.649 54.0148 36.4762C54.483 37.3035 54.803 38.2243 54.9747 39.2389C55.1619 40.2534 55.2556 41.2523 55.2556 42.2356C55.2556 43.2189 55.1619 44.2178 54.9747 45.2323C54.803 46.2468 54.483 47.1677 54.0148 47.9949C53.5621 48.8222 52.9378 49.5011 52.1418 50.0318C51.3458 50.5468 50.3313 50.8044 49.0982 50.8044C47.8652 50.8044 46.8507 50.5468 46.0547 50.0318C45.2587 49.5011 44.6266 48.8222 44.1583 47.9949C43.7057 47.1677 43.3857 46.2468 43.1984 45.2323C43.0267 44.2178 42.9409 43.2189 42.9409 42.2356ZM46.4527 42.2356C46.4527 42.6726 46.4683 43.1955 46.4995 43.8042C46.5463 44.4129 46.6556 44.9982 46.8273 45.5601C46.999 46.122 47.2565 46.598 47.5999 46.9882C47.9589 47.3784 48.4583 47.5735 49.0982 47.5735C49.7226 47.5735 50.2142 47.3784 50.5732 46.9882C50.9322 46.598 51.1975 46.122 51.3692 45.5601C51.5409 44.9982 51.6423 44.4129 51.6736 43.8042C51.7204 43.1955 51.7438 42.6726 51.7438 42.2356C51.7438 41.7986 51.7204 41.2757 51.6736 40.667C51.6423 40.0583 51.5409 39.473 51.3692 38.9111C51.1975 38.3492 50.9322 37.8732 50.5732 37.483C50.2142 37.0928 49.7226 36.8977 49.0982 36.8977C48.4583 36.8977 47.9589 37.0928 47.5999 37.483C47.2565 37.8732 46.999 38.3492 46.8273 38.9111C46.6556 39.473 46.5463 40.0583 46.4995 40.667C46.4683 41.2757 46.4527 41.7986 46.4527 42.2356ZM67.4719 46.1454C67.4719 45.5055 67.589 44.9046 67.8231 44.3427C68.0728 43.7808 68.4006 43.2891 68.8064 42.8677C69.2278 42.4463 69.7195 42.1185 70.2813 41.8844C70.8432 41.6347 71.4441 41.5098 72.0841 41.5098C72.724 41.5098 73.3249 41.6347 73.8868 41.8844C74.4487 42.1185 74.9325 42.4463 75.3383 42.8677C75.7598 43.2891 76.0875 43.7808 76.3216 44.3427C76.5714 44.9046 76.6962 45.5055 76.6962 46.1454C76.6962 46.7853 76.5714 47.394 76.3216 47.9715C76.0875 48.5334 75.7598 49.0251 75.3383 49.4465C74.9325 49.8679 74.4487 50.2035 73.8868 50.4532C73.3249 50.6873 72.724 50.8044 72.0841 50.8044C71.4441 50.8044 70.8432 50.6873 70.2813 50.4532C69.7195 50.2035 69.2278 49.8679 68.8064 49.4465C68.4006 49.0251 68.0728 48.5334 67.8231 47.9715C67.589 47.394 67.4719 46.7853 67.4719 46.1454ZM74.3082 46.1454C74.3082 45.5211 74.0897 44.9904 73.6527 44.5534C73.2313 44.1164 72.7084 43.8978 72.0841 43.8978C71.4597 43.8978 70.9291 44.1164 70.4921 44.5534C70.0706 44.9904 69.8599 45.5211 69.8599 46.1454C69.8599 46.7853 70.0706 47.3238 70.4921 47.7608C70.9291 48.1978 71.4597 48.4164 72.0841 48.4164C72.7084 48.4164 73.2313 48.1978 73.6527 47.7608C74.0897 47.3238 74.3082 46.7853 74.3082 46.1454ZM55.6957 38.3024C55.6957 37.6624 55.8127 37.0615 56.0468 36.4997C56.2966 35.9378 56.6243 35.4461 57.0302 35.0247C57.4516 34.6033 57.9432 34.2755 58.5051 34.0414C59.067 33.7917 59.6679 33.6668 60.3078 33.6668C60.9478 33.6668 61.5487 33.7917 62.1106 34.0414C62.6724 34.2755 63.1563 34.6033 63.5621 35.0247C63.9835 35.4461 64.3113 35.9378 64.5454 36.4997C64.7951 37.0615 64.92 37.6624 64.92 38.3024C64.92 38.9423 64.7951 39.5432 64.5454 40.1051C64.3113 40.667 63.9835 41.1586 63.5621 41.5801C63.1563 42.0015 62.6724 42.337 62.1106 42.5868C61.5487 42.8209 60.9478 42.938 60.3078 42.938C59.6679 42.938 59.067 42.8209 58.5051 42.5868C57.9432 42.337 57.4516 42.0015 57.0302 41.5801C56.6243 41.1586 56.2966 40.667 56.0468 40.1051C55.8127 39.5432 55.6957 38.9423 55.6957 38.3024ZM62.532 38.3024C62.532 37.6781 62.3135 37.1474 61.8764 36.7104C61.455 36.2733 60.9322 36.0548 60.3078 36.0548C59.6835 36.0548 59.1528 36.2733 58.7158 36.7104C58.2944 37.1474 58.0837 37.6781 58.0837 38.3024C58.0837 38.9267 58.2944 39.4574 58.7158 39.8944C59.1528 40.3314 59.6835 40.5499 60.3078 40.5499C60.9322 40.5499 61.455 40.3314 61.8764 39.8944C62.3135 39.4574 62.532 38.9267 62.532 38.3024ZM69.977 33.1986L71.9436 34.2989L62.2744 51.2726L60.4951 50.2659L69.977 33.1986Z" fill="#3E363F"/>
<path d="M29.3414 63.1235H31.858V60.6069H33.3608V63.1235H35.8773V64.6263H33.3608V67.1429H31.858V64.6263H29.3414V63.1235ZM36.939 65.5924L40.2189 62.6464C40.3859 62.4954 40.5529 62.3244 40.7199 62.1336C40.8868 61.9427 40.9703 61.7201 40.9703 61.4657C40.9703 61.1794 40.867 60.9568 40.6602 60.7978C40.4535 60.6308 40.211 60.5473 39.9327 60.5473C39.5987 60.5473 39.3363 60.6507 39.1455 60.8574C38.9626 61.0641 38.8593 61.3186 38.8354 61.6207L37.0464 61.4895C37.0702 61.0522 37.1617 60.6745 37.3207 60.3565C37.4797 60.0305 37.6904 59.7601 37.9528 59.5454C38.2152 59.3307 38.5213 59.1717 38.8712 59.0684C39.229 58.957 39.6146 58.9014 40.0281 58.9014C40.4098 58.9014 40.7676 58.957 41.1015 59.0684C41.4355 59.1717 41.7257 59.3307 41.9722 59.5454C42.2187 59.7522 42.4095 60.0146 42.5447 60.3326C42.6878 60.6507 42.7594 61.0204 42.7594 61.4418C42.7594 61.7122 42.7315 61.9586 42.6759 62.1813C42.6202 62.396 42.5407 62.5948 42.4373 62.7776C42.3419 62.9526 42.2266 63.1156 42.0915 63.2666C41.9563 63.4177 41.8092 63.5648 41.6502 63.7079L39.0859 65.9144H42.8309V67.4888H36.939V65.5924ZM43.5799 63.2666C43.5799 62.7657 43.6236 62.2568 43.7111 61.74C43.8065 61.2232 43.9695 60.754 44.2001 60.3326C44.4386 59.9112 44.7607 59.5693 45.1662 59.3069C45.5717 59.0365 46.0885 58.9014 46.7167 58.9014C47.3448 58.9014 47.8617 59.0365 48.2672 59.3069C48.6727 59.5693 48.9908 59.9112 49.2213 60.3326C49.4599 60.754 49.6229 61.2232 49.7104 61.74C49.8058 62.2568 49.8535 62.7657 49.8535 63.2666C49.8535 63.7676 49.8058 64.2764 49.7104 64.7933C49.6229 65.3101 49.4599 65.7792 49.2213 66.2007C48.9908 66.6221 48.6727 66.968 48.2672 67.2383C47.8617 67.5007 47.3448 67.6319 46.7167 67.6319C46.0885 67.6319 45.5717 67.5007 45.1662 67.2383C44.7607 66.968 44.4386 66.6221 44.2001 66.2007C43.9695 65.7792 43.8065 65.3101 43.7111 64.7933C43.6236 64.2764 43.5799 63.7676 43.5799 63.2666ZM45.3689 63.2666C45.3689 63.4893 45.3769 63.7556 45.3928 64.0657C45.4167 64.3758 45.4723 64.674 45.5598 64.9603C45.6472 65.2465 45.7784 65.489 45.9534 65.6878C46.1362 65.8866 46.3907 65.986 46.7167 65.986C47.0347 65.986 47.2852 65.8866 47.4681 65.6878C47.651 65.489 47.7861 65.2465 47.8736 64.9603C47.9611 64.674 48.0128 64.3758 48.0287 64.0657C48.0525 63.7556 48.0644 63.4893 48.0644 63.2666C48.0644 63.044 48.0525 62.7776 48.0287 62.4675C48.0128 62.1574 47.9611 61.8593 47.8736 61.573C47.7861 61.2868 47.651 61.0442 47.4681 60.8455C47.2852 60.6467 47.0347 60.5473 46.7167 60.5473C46.3907 60.5473 46.1362 60.6467 45.9534 60.8455C45.7784 61.0442 45.6472 61.2868 45.5598 61.573C45.4723 61.8593 45.4167 62.1574 45.3928 62.4675C45.3769 62.7776 45.3689 63.044 45.3689 63.2666ZM56.0769 65.2584C56.0769 64.9324 56.1365 64.6263 56.2558 64.3401C56.383 64.0538 56.55 63.8033 56.7567 63.5887C56.9714 63.374 57.2219 63.207 57.5081 63.0877C57.7944 62.9605 58.1005 62.8969 58.4265 62.8969C58.7525 62.8969 59.0586 62.9605 59.3449 63.0877C59.6311 63.207 59.8776 63.374 60.0844 63.5887C60.299 63.8033 60.466 64.0538 60.5853 64.3401C60.7125 64.6263 60.7761 64.9324 60.7761 65.2584C60.7761 65.5844 60.7125 65.8945 60.5853 66.1887C60.466 66.475 60.299 66.7254 60.0844 66.9401C59.8776 67.1548 59.6311 67.3258 59.3449 67.453C59.0586 67.5723 58.7525 67.6319 58.4265 67.6319C58.1005 67.6319 57.7944 67.5723 57.5081 67.453C57.2219 67.3258 56.9714 67.1548 56.7567 66.9401C56.55 66.7254 56.383 66.475 56.2558 66.1887C56.1365 65.8945 56.0769 65.5844 56.0769 65.2584ZM59.5596 65.2584C59.5596 64.9404 59.4483 64.67 59.2256 64.4474C59.0109 64.2248 58.7446 64.1134 58.4265 64.1134C58.1085 64.1134 57.8381 64.2248 57.6155 64.4474C57.4008 64.67 57.2935 64.9404 57.2935 65.2584C57.2935 65.5844 57.4008 65.8588 57.6155 66.0814C57.8381 66.304 58.1085 66.4153 58.4265 66.4153C58.7446 66.4153 59.0109 66.304 59.2256 66.0814C59.4483 65.8588 59.5596 65.5844 59.5596 65.2584ZM50.0777 61.2629C50.0777 60.9369 50.1373 60.6308 50.2566 60.3445C50.3838 60.0583 50.5508 59.8078 50.7575 59.5931C50.9722 59.3785 51.2227 59.2115 51.5089 59.0922C51.7951 58.965 52.1013 58.9014 52.4273 58.9014C52.7533 58.9014 53.0594 58.965 53.3456 59.0922C53.6319 59.2115 53.8784 59.3785 54.0851 59.5931C54.2998 59.8078 54.4668 60.0583 54.586 60.3445C54.7133 60.6308 54.7769 60.9369 54.7769 61.2629C54.7769 61.5889 54.7133 61.895 54.586 62.1813C54.4668 62.4675 54.2998 62.718 54.0851 62.9327C53.8784 63.1474 53.6319 63.3183 53.3456 63.4455C53.0594 63.5648 52.7533 63.6244 52.4273 63.6244C52.1013 63.6244 51.7951 63.5648 51.5089 63.4455C51.2227 63.3183 50.9722 63.1474 50.7575 62.9327C50.5508 62.718 50.3838 62.4675 50.2566 62.1813C50.1373 61.895 50.0777 61.5889 50.0777 61.2629ZM53.5603 61.2629C53.5603 60.9449 53.449 60.6745 53.2264 60.4519C53.0117 60.2292 52.7453 60.1179 52.4273 60.1179C52.1092 60.1179 51.8389 60.2292 51.6162 60.4519C51.4016 60.6745 51.2942 60.9449 51.2942 61.2629C51.2942 61.581 51.4016 61.8513 51.6162 62.0739C51.8389 62.2966 52.1092 62.4079 52.4273 62.4079C52.7453 62.4079 53.0117 62.2966 53.2264 62.0739C53.449 61.8513 53.5603 61.581 53.5603 61.2629ZM57.3531 58.6628L58.355 59.2234L53.4291 67.8704L52.5227 67.3576L57.3531 58.6628Z" fill="#E26D5C"/>
<defs>
<filter id="filter0_d_434_953" x="6.60173" y="8.50488" width="72.1872" height="72.1872" filterUnits="userSpaceOnUse" color-interpolation-filters="sRGB">
<feFlood flood-opacity="0" result="BackgroundImageFix"/>
<feColorMatrix in="SourceAlpha" type="matrix" values="0 0 0 0 0 0 0 0 0 0 0 0 0 0 0 0 0 0 127 0" result="hardAlpha"/>
<feOffset dy="1.951"/>
<feGaussianBlur stdDeviation="0.9755"/>
<feComposite in2="hardAlpha" operator="out"/>
<feColorMatrix type="matrix" values="0 0 0 0 0 0 0 0 0 0 0 0 0 0 0 0 0 0 0.25 0"/>
<feBlend mode="normal" in2="BackgroundImageFix" result="effect1_dropShadow_434_953"/>
<feBlend mode="normal" in="SourceGraphic" in2="effect1_dropShadow_434_953" result="shape"/>
</filter>
</defs>
</svg>
