<svg width="84" height="85" viewBox="0 0 84 85" fill="none" xmlns="http://www.w3.org/2000/svg">
<mask id="path-1-inside-1_434_951" fill="white">
<path d="M83.8255 42.5619C83.8255 52.0517 80.592 61.2584 74.6581 68.6642C68.7242 76.07 60.4441 81.2329 51.1825 83.3019C41.921 85.371 32.2309 84.2226 23.7095 80.0461C15.1881 75.8696 8.34409 68.9143 4.30557 60.3267C0.267059 51.739 -0.72489 42.0317 1.49324 32.8047C3.71136 23.5777 9.00717 15.3819 16.5077 9.56824C24.0082 3.75456 33.2658 0.670011 42.7544 0.823056C52.243 0.976101 61.3963 4.3576 68.7054 10.4102L42.0812 42.5619H83.8255Z"/>
</mask>
<path d="M83.8255 42.5619C83.8255 52.0517 80.592 61.2584 74.6581 68.6642C68.7242 76.07 60.4441 81.2329 51.1825 83.3019C41.921 85.371 32.2309 84.2226 23.7095 80.0461C15.1881 75.8696 8.34409 68.9143 4.30557 60.3267C0.267059 51.739 -0.72489 42.0317 1.49324 32.8047C3.71136 23.5777 9.00717 15.3819 16.5077 9.56824C24.0082 3.75456 33.2658 0.670011 42.7544 0.823056C52.243 0.976101 61.3963 4.3576 68.7054 10.4102L42.0812 42.5619H83.8255Z" stroke="#E26D5C" stroke-width="34.077" mask="url(#path-1-inside-1_434_951)"/>
<g filter="url(#filter0_d_434_951)">
<ellipse cx="42.1659" cy="42.6474" rx="34.1425" ry="34.1425" fill="#FFFDFD"/>
</g>
<path d="M21.5981 37.7968C21.5981 37.032 21.7386 36.3687 22.0195 35.8068C22.3161 35.2293 22.7141 34.7533 23.2135 34.3787C23.7286 33.9885 24.3217 33.6997 24.9928 33.5124C25.664 33.3251 26.382 33.2315 27.1467 33.2315C27.9115 33.2315 28.6295 33.3251 29.3007 33.5124C29.9718 33.6997 30.5571 33.9885 31.0566 34.3787C31.556 34.7533 31.954 35.2293 32.2506 35.8068C32.5471 36.3687 32.6954 37.032 32.6954 37.7968C32.6954 38.7021 32.4457 39.4747 31.9462 40.1146C31.4624 40.7546 30.7756 41.2072 29.886 41.4725V41.5193C30.8849 41.7847 31.6497 42.2685 32.1803 42.9709C32.711 43.6576 32.9763 44.5161 32.9763 45.5462C32.9763 46.3422 32.8125 47.0446 32.4847 47.6533C32.1725 48.262 31.7433 48.7693 31.197 49.1751C30.6664 49.5653 30.0498 49.8618 29.3475 50.0647C28.6451 50.2676 27.9115 50.3691 27.1467 50.3691C26.382 50.3691 25.6484 50.2676 24.946 50.0647C24.2437 49.8618 23.6193 49.5653 23.0731 49.1751C22.5424 48.7693 22.1132 48.262 21.7854 47.6533C21.4732 47.0446 21.3172 46.3422 21.3172 45.5462C21.3172 44.5161 21.5825 43.6576 22.1132 42.9709C22.6438 42.2685 23.4086 41.7847 24.4075 41.5193V41.4725C23.5179 41.2072 22.8233 40.7546 22.3239 40.1146C21.84 39.4747 21.5981 38.7021 21.5981 37.7968ZM25.1099 38.2885C25.1099 38.8036 25.2972 39.2406 25.6718 39.5996C26.0464 39.9585 26.538 40.138 27.1467 40.138C27.7555 40.138 28.2471 39.9585 28.6217 39.5996C28.9963 39.2406 29.1836 38.8036 29.1836 38.2885C29.1836 37.789 28.9963 37.3598 28.6217 37.0008C28.2471 36.6418 27.7555 36.4624 27.1467 36.4624C26.538 36.4624 26.0464 36.6418 25.6718 37.0008C25.2972 37.3598 25.1099 37.789 25.1099 38.2885ZM24.829 45.0546C24.829 45.6321 25.0397 46.1237 25.4611 46.5295C25.8825 46.9353 26.4444 47.1382 27.1467 47.1382C27.8491 47.1382 28.411 46.9353 28.8324 46.5295C29.2538 46.1237 29.4645 45.6321 29.4645 45.0546C29.4645 44.4615 29.2538 43.962 28.8324 43.5562C28.411 43.1504 27.8491 42.9475 27.1467 42.9475C26.4444 42.9475 25.8825 43.1504 25.4611 43.5562C25.0397 43.962 24.829 44.4615 24.829 45.0546ZM45.7311 36.6028H39.1523L39.0821 39.1547C39.4411 39.0299 39.9327 38.9674 40.5571 38.9674C41.3999 38.9674 42.1725 39.0923 42.8749 39.342C43.5772 39.5918 44.1781 39.9585 44.6776 40.4424C45.1926 40.9106 45.5906 41.4881 45.8716 42.1749C46.1525 42.846 46.293 43.603 46.293 44.4458C46.293 45.3823 46.1291 46.2174 45.8014 46.9509C45.4892 47.6845 45.0522 48.3088 44.4903 48.8239C43.9284 49.3233 43.2572 49.7057 42.4768 49.9711C41.7121 50.2364 40.877 50.3691 39.9718 50.3691C38.5358 50.3691 37.334 50.0179 36.3663 49.3155C35.3986 48.6132 34.7353 47.5518 34.3763 46.1315L38.052 45.2887C38.1456 45.8818 38.3954 46.3656 38.8012 46.7402C39.207 47.0992 39.7142 47.2787 40.3229 47.2787C41.0721 47.2787 41.6652 47.0446 42.1023 46.5763C42.5549 46.1081 42.7812 45.515 42.7812 44.797C42.7812 44.2507 42.6641 43.8059 42.43 43.4625C42.2115 43.1036 41.915 42.8226 41.5404 42.6197C41.1814 42.4012 40.7756 42.2529 40.3229 42.1749C39.8703 42.0968 39.4177 42.0578 38.965 42.0578C38.3876 42.0578 37.8023 42.1124 37.2091 42.2217C36.6317 42.331 36.0698 42.4792 35.5235 42.6665L35.7108 33.5124H45.7311V36.6028ZM58.9307 45.7101C58.9307 45.0702 59.0478 44.4693 59.2819 43.9074C59.5316 43.3455 59.8594 42.8538 60.2652 42.4324C60.6866 42.011 61.1783 41.6832 61.7402 41.4491C62.3021 41.1994 62.903 41.0745 63.5429 41.0745C64.1828 41.0745 64.7837 41.1994 65.3456 41.4491C65.9075 41.6832 66.3913 42.011 66.7972 42.4324C67.2186 42.8538 67.5463 43.3455 67.7805 43.9074C68.0302 44.4693 68.1551 45.0702 68.1551 45.7101C68.1551 46.35 68.0302 46.9587 67.7805 47.5362C67.5463 48.0981 67.2186 48.5898 66.7972 49.0112C66.3913 49.4326 65.9075 49.7682 65.3456 50.0179C64.7837 50.252 64.1828 50.3691 63.5429 50.3691C62.903 50.3691 62.3021 50.252 61.7402 50.0179C61.1783 49.7682 60.6866 49.4326 60.2652 49.0112C59.8594 48.5898 59.5316 48.0981 59.2819 47.5362C59.0478 46.9587 58.9307 46.35 58.9307 45.7101ZM65.767 45.7101C65.767 45.0858 65.5485 44.5551 65.1115 44.1181C64.6901 43.6811 64.1672 43.4625 63.5429 43.4625C62.9186 43.4625 62.3879 43.6811 61.9509 44.1181C61.5295 44.5551 61.3187 45.0858 61.3187 45.7101C61.3187 46.35 61.5295 46.8885 61.9509 47.3255C62.3879 47.7625 62.9186 47.9811 63.5429 47.9811C64.1672 47.9811 64.6901 47.7625 65.1115 47.3255C65.5485 46.8885 65.767 46.35 65.767 45.7101ZM47.1545 37.8671C47.1545 37.2271 47.2716 36.6262 47.5057 36.0643C47.7554 35.5025 48.0832 35.0108 48.489 34.5894C48.9104 34.168 49.402 33.8402 49.9639 33.6061C50.5258 33.3564 51.1267 33.2315 51.7667 33.2315C52.4066 33.2315 53.0075 33.3564 53.5694 33.6061C54.1313 33.8402 54.6151 34.168 55.0209 34.5894C55.4423 35.0108 55.7701 35.5025 56.0042 36.0643C56.254 36.6262 56.3788 37.2271 56.3788 37.8671C56.3788 38.507 56.254 39.1079 56.0042 39.6698C55.7701 40.2317 55.4423 40.7233 55.0209 41.1448C54.6151 41.5662 54.1313 41.9017 53.5694 42.1515C53.0075 42.3856 52.4066 42.5026 51.7667 42.5026C51.1267 42.5026 50.5258 42.3856 49.9639 42.1515C49.402 41.9017 48.9104 41.5662 48.489 41.1448C48.0832 40.7233 47.7554 40.2317 47.5057 39.6698C47.2716 39.1079 47.1545 38.507 47.1545 37.8671ZM53.9908 37.8671C53.9908 37.2428 53.7723 36.7121 53.3353 36.2751C52.9138 35.838 52.391 35.6195 51.7667 35.6195C51.1423 35.6195 50.6117 35.838 50.1746 36.2751C49.7532 36.7121 49.5425 37.2428 49.5425 37.8671C49.5425 38.4914 49.7532 39.0221 50.1746 39.4591C50.6117 39.8961 51.1423 40.1146 51.7667 40.1146C52.391 40.1146 52.9138 39.8961 53.3353 39.4591C53.7723 39.0221 53.9908 38.4914 53.9908 37.8671ZM61.4358 32.7633L63.4024 33.8636L53.7333 50.8373L51.954 49.8306L61.4358 32.7633Z" fill="#3E363F"/>
<path d="M31.6824 65.2346H28.7484V63.8033H31.6824V65.2346ZM35.1877 61.0482L33.4941 62.5391L32.4803 61.3703L35.2354 59.0445H36.9052V67.4888H35.1877V61.0482ZM44.7507 60.6189H41.3992L41.3634 61.9189C41.5463 61.8553 41.7968 61.8235 42.1148 61.8235C42.5442 61.8235 42.9378 61.8871 43.2956 62.0143C43.6534 62.1415 43.9595 62.3284 44.214 62.5749C44.4764 62.8134 44.6791 63.1076 44.8222 63.4575C44.9654 63.7994 45.0369 64.185 45.0369 64.6144C45.0369 65.0915 44.9534 65.5168 44.7865 65.8906C44.6274 66.2643 44.4048 66.5823 44.1186 66.8447C43.8323 67.0992 43.4904 67.294 43.0928 67.4291C42.7032 67.5643 42.2778 67.6319 41.8167 67.6319C41.0851 67.6319 40.4729 67.453 39.9799 67.0952C39.4869 66.7374 39.149 66.1967 38.9661 65.4731L40.8386 65.0437C40.8864 65.3459 41.0136 65.5924 41.2203 65.7832C41.427 65.9661 41.6855 66.0575 41.9956 66.0575C42.3772 66.0575 42.6794 65.9383 42.902 65.6997C43.1326 65.4612 43.2479 65.159 43.2479 64.7933C43.2479 64.515 43.1883 64.2884 43.069 64.1134C42.9577 63.9306 42.8066 63.7874 42.6158 63.6841C42.4329 63.5728 42.2261 63.4972 41.9956 63.4575C41.765 63.4177 41.5344 63.3978 41.3038 63.3978C41.0096 63.3978 40.7114 63.4257 40.4093 63.4813C40.1151 63.537 39.8288 63.6125 39.5505 63.7079L39.646 59.0445H44.7507V60.6189ZM51.475 65.2584C51.475 64.9324 51.5347 64.6263 51.654 64.3401C51.7812 64.0538 51.9482 63.8033 52.1549 63.5887C52.3696 63.374 52.62 63.207 52.9063 63.0877C53.1925 62.9605 53.4987 62.8969 53.8247 62.8969C54.1507 62.8969 54.4568 62.9605 54.743 63.0877C55.0293 63.207 55.2758 63.374 55.4825 63.5887C55.6972 63.8033 55.8642 64.0538 55.9834 64.3401C56.1107 64.6263 56.1743 64.9324 56.1743 65.2584C56.1743 65.5844 56.1107 65.8945 55.9834 66.1887C55.8642 66.475 55.6972 66.7254 55.4825 66.9401C55.2758 67.1548 55.0293 67.3258 54.743 67.453C54.4568 67.5723 54.1507 67.6319 53.8247 67.6319C53.4987 67.6319 53.1925 67.5723 52.9063 67.453C52.62 67.3258 52.3696 67.1548 52.1549 66.9401C51.9482 66.7254 51.7812 66.475 51.654 66.1887C51.5347 65.8945 51.475 65.5844 51.475 65.2584ZM54.9577 65.2584C54.9577 64.9404 54.8464 64.67 54.6238 64.4474C54.4091 64.2248 54.1427 64.1134 53.8247 64.1134C53.5066 64.1134 53.2363 64.2248 53.0136 64.4474C52.7989 64.67 52.6916 64.9404 52.6916 65.2584C52.6916 65.5844 52.7989 65.8588 53.0136 66.0814C53.2363 66.304 53.5066 66.4153 53.8247 66.4153C54.1427 66.4153 54.4091 66.304 54.6238 66.0814C54.8464 65.8588 54.9577 65.5844 54.9577 65.2584ZM45.4758 61.2629C45.4758 60.9369 45.5354 60.6308 45.6547 60.3445C45.7819 60.0583 45.9489 59.8078 46.1556 59.5931C46.3703 59.3785 46.6208 59.2115 46.907 59.0922C47.1933 58.965 47.4994 58.9014 47.8254 58.9014C48.1514 58.9014 48.4575 58.965 48.7438 59.0922C49.03 59.2115 49.2765 59.3785 49.4833 59.5931C49.6979 59.8078 49.8649 60.0583 49.9842 60.3445C50.1114 60.6308 50.175 60.9369 50.175 61.2629C50.175 61.5889 50.1114 61.895 49.9842 62.1813C49.8649 62.4675 49.6979 62.718 49.4833 62.9327C49.2765 63.1474 49.03 63.3183 48.7438 63.4455C48.4575 63.5648 48.1514 63.6244 47.8254 63.6244C47.4994 63.6244 47.1933 63.5648 46.907 63.4455C46.6208 63.3183 46.3703 63.1474 46.1556 62.9327C45.9489 62.718 45.7819 62.4675 45.6547 62.1813C45.5354 61.895 45.4758 61.5889 45.4758 61.2629ZM48.9585 61.2629C48.9585 60.9449 48.8471 60.6745 48.6245 60.4519C48.4098 60.2292 48.1435 60.1179 47.8254 60.1179C47.5074 60.1179 47.237 60.2292 47.0144 60.4519C46.7997 60.6745 46.6923 60.9449 46.6923 61.2629C46.6923 61.581 46.7997 61.8513 47.0144 62.0739C47.237 62.2966 47.5074 62.4079 47.8254 62.4079C48.1435 62.4079 48.4098 62.2966 48.6245 62.0739C48.8471 61.8513 48.9585 61.581 48.9585 61.2629ZM52.7512 58.6628L53.7531 59.2234L48.8273 67.8704L47.9208 67.3576L52.7512 58.6628Z" fill="#E26D5C"/>
<defs>
<filter id="filter0_d_434_951" x="6.07244" y="8.50488" width="72.1872" height="72.1872" filterUnits="userSpaceOnUse" color-interpolation-filters="sRGB">
<feFlood flood-opacity="0" result="BackgroundImageFix"/>
<feColorMatrix in="SourceAlpha" type="matrix" values="0 0 0 0 0 0 0 0 0 0 0 0 0 0 0 0 0 0 127 0" result="hardAlpha"/>
<feOffset dy="1.951"/>
<feGaussianBlur stdDeviation="0.9755"/>
<feComposite in2="hardAlpha" operator="out"/>
<feColorMatrix type="matrix" values="0 0 0 0 0 0 0 0 0 0 0 0 0 0 0 0 0 0 0.25 0"/>
<feBlend mode="normal" in2="BackgroundImageFix" result="effect1_dropShadow_434_951"/>
<feBlend mode="normal" in="SourceGraphic" in2="effect1_dropShadow_434_951" result="shape"/>
</filter>
</defs>
</svg>
