<svg width="84" height="85" viewBox="0 0 84 85" fill="none" xmlns="http://www.w3.org/2000/svg">
<circle cx="41.924" cy="42.5619" r="33.225" stroke="#78A55A" stroke-width="17.0385"/>
<g filter="url(#filter0_d_434_952)">
<ellipse cx="42.0097" cy="42.6474" rx="34.1425" ry="34.1425" fill="#FFFDFD"/>
</g>
<path d="M18.8491 37.881L15.5246 40.8075L13.5346 38.5131L18.9427 33.9477H22.2204V50.5234H18.8491V37.881ZM26.2894 42.2356C26.2894 41.2523 26.3752 40.2534 26.5469 39.2389C26.7342 38.2243 27.0542 37.3035 27.5068 36.4762C27.975 35.649 28.6071 34.9779 29.4032 34.4628C30.1992 33.9321 31.2137 33.6668 32.4467 33.6668C33.6797 33.6668 34.6943 33.9321 35.4903 34.4628C36.2863 34.9779 36.9106 35.649 37.3632 36.4762C37.8315 37.3035 38.1514 38.2243 38.3231 39.2389C38.5104 40.2534 38.6041 41.2523 38.6041 42.2356C38.6041 43.2189 38.5104 44.2178 38.3231 45.2323C38.1514 46.2468 37.8315 47.1677 37.3632 47.9949C36.9106 48.8222 36.2863 49.5011 35.4903 50.0318C34.6943 50.5468 33.6797 50.8044 32.4467 50.8044C31.2137 50.8044 30.1992 50.5468 29.4032 50.0318C28.6071 49.5011 27.975 48.8222 27.5068 47.9949C27.0542 47.1677 26.7342 46.2468 26.5469 45.2323C26.3752 44.2178 26.2894 43.2189 26.2894 42.2356ZM29.8012 42.2356C29.8012 42.6726 29.8168 43.1955 29.848 43.8042C29.8948 44.4129 30.0041 44.9982 30.1758 45.5601C30.3474 46.122 30.605 46.598 30.9483 46.9882C31.3073 47.3784 31.8068 47.5735 32.4467 47.5735C33.071 47.5735 33.5627 47.3784 33.9217 46.9882C34.2807 46.598 34.546 46.122 34.7177 45.5601C34.8894 44.9982 34.9908 44.4129 35.022 43.8042C35.0689 43.1955 35.0923 42.6726 35.0923 42.2356C35.0923 41.7986 35.0689 41.2757 35.022 40.667C34.9908 40.0583 34.8894 39.473 34.7177 38.9111C34.546 38.3492 34.2807 37.8732 33.9217 37.483C33.5627 37.0928 33.071 36.8977 32.4467 36.8977C31.8068 36.8977 31.3073 37.0928 30.9483 37.483C30.605 37.8732 30.3474 38.3492 30.1758 38.9111C30.0041 39.473 29.8948 40.0583 29.848 40.667C29.8168 41.2757 29.8012 41.7986 29.8012 42.2356ZM39.6997 42.2356C39.6997 41.2523 39.7855 40.2534 39.9572 39.2389C40.1445 38.2243 40.4645 37.3035 40.9171 36.4762C41.3853 35.649 42.0175 34.9779 42.8135 34.4628C43.6095 33.9321 44.624 33.6668 45.857 33.6668C47.0901 33.6668 48.1046 33.9321 48.9006 34.4628C49.6966 34.9779 50.3209 35.649 50.7736 36.4762C51.2418 37.3035 51.5618 38.2243 51.7334 39.2389C51.9207 40.2534 52.0144 41.2523 52.0144 42.2356C52.0144 43.2189 51.9207 44.2178 51.7334 45.2323C51.5618 46.2468 51.2418 47.1677 50.7736 47.9949C50.3209 48.8222 49.6966 49.5011 48.9006 50.0318C48.1046 50.5468 47.0901 50.8044 45.857 50.8044C44.624 50.8044 43.6095 50.5468 42.8135 50.0318C42.0175 49.5011 41.3853 48.8222 40.9171 47.9949C40.4645 47.1677 40.1445 46.2468 39.9572 45.2323C39.7855 44.2178 39.6997 43.2189 39.6997 42.2356ZM43.2115 42.2356C43.2115 42.6726 43.2271 43.1955 43.2583 43.8042C43.3051 44.4129 43.4144 44.9982 43.5861 45.5601C43.7578 46.122 44.0153 46.598 44.3587 46.9882C44.7176 47.3784 45.2171 47.5735 45.857 47.5735C46.4814 47.5735 46.973 47.3784 47.332 46.9882C47.691 46.598 47.9563 46.122 48.128 45.5601C48.2997 44.9982 48.4011 44.4129 48.4324 43.8042C48.4792 43.1955 48.5026 42.6726 48.5026 42.2356C48.5026 41.7986 48.4792 41.2757 48.4324 40.667C48.4011 40.0583 48.2997 39.473 48.128 38.9111C47.9563 38.3492 47.691 37.8732 47.332 37.483C46.973 37.0928 46.4814 36.8977 45.857 36.8977C45.2171 36.8977 44.7176 37.0928 44.3587 37.483C44.0153 37.8732 43.7578 38.3492 43.5861 38.9111C43.4144 39.473 43.3051 40.0583 43.2583 40.667C43.2271 41.2757 43.2115 41.7986 43.2115 42.2356ZM64.2307 46.1454C64.2307 45.5055 64.3478 44.9046 64.5819 44.3427C64.8316 43.7808 65.1594 43.2891 65.5652 42.8677C65.9866 42.4463 66.4782 42.1185 67.0401 41.8844C67.602 41.6347 68.2029 41.5098 68.8429 41.5098C69.4828 41.5098 70.0837 41.6347 70.6456 41.8844C71.2075 42.1185 71.6913 42.4463 72.0971 42.8677C72.5185 43.2891 72.8463 43.7808 73.0804 44.3427C73.3302 44.9046 73.455 45.5055 73.455 46.1454C73.455 46.7853 73.3302 47.394 73.0804 47.9715C72.8463 48.5334 72.5185 49.0251 72.0971 49.4465C71.6913 49.8679 71.2075 50.2035 70.6456 50.4532C70.0837 50.6873 69.4828 50.8044 68.8429 50.8044C68.2029 50.8044 67.602 50.6873 67.0401 50.4532C66.4782 50.2035 65.9866 49.8679 65.5652 49.4465C65.1594 49.0251 64.8316 48.5334 64.5819 47.9715C64.3478 47.394 64.2307 46.7853 64.2307 46.1454ZM71.067 46.1454C71.067 45.5211 70.8485 44.9904 70.4115 44.5534C69.99 44.1164 69.4672 43.8978 68.8429 43.8978C68.2185 43.8978 67.6879 44.1164 67.2508 44.5534C66.8294 44.9904 66.6187 45.5211 66.6187 46.1454C66.6187 46.7853 66.8294 47.3238 67.2508 47.7608C67.6879 48.1978 68.2185 48.4164 68.8429 48.4164C69.4672 48.4164 69.99 48.1978 70.4115 47.7608C70.8485 47.3238 71.067 46.7853 71.067 46.1454ZM52.4545 38.3024C52.4545 37.6624 52.5715 37.0615 52.8056 36.4997C53.0554 35.9378 53.3831 35.4461 53.7889 35.0247C54.2104 34.6033 54.702 34.2755 55.2639 34.0414C55.8258 33.7917 56.4267 33.6668 57.0666 33.6668C57.7065 33.6668 58.3075 33.7917 58.8693 34.0414C59.4312 34.2755 59.9151 34.6033 60.3209 35.0247C60.7423 35.4461 61.0701 35.9378 61.3042 36.4997C61.5539 37.0615 61.6788 37.6624 61.6788 38.3024C61.6788 38.9423 61.5539 39.5432 61.3042 40.1051C61.0701 40.667 60.7423 41.1586 60.3209 41.5801C59.9151 42.0015 59.4312 42.337 58.8693 42.5868C58.3075 42.8209 57.7065 42.938 57.0666 42.938C56.4267 42.938 55.8258 42.8209 55.2639 42.5868C54.702 42.337 54.2104 42.0015 53.7889 41.5801C53.3831 41.1586 53.0554 40.667 52.8056 40.1051C52.5715 39.5432 52.4545 38.9423 52.4545 38.3024ZM59.2908 38.3024C59.2908 37.6781 59.0722 37.1474 58.6352 36.7104C58.2138 36.2733 57.6909 36.0548 57.0666 36.0548C56.4423 36.0548 55.9116 36.2733 55.4746 36.7104C55.0532 37.1474 54.8425 37.6781 54.8425 38.3024C54.8425 38.9267 55.0532 39.4574 55.4746 39.8944C55.9116 40.3314 56.4423 40.5499 57.0666 40.5499C57.6909 40.5499 58.2138 40.3314 58.6352 39.8944C59.0722 39.4574 59.2908 38.9267 59.2908 38.3024ZM66.7358 33.1986L68.7024 34.2989L59.0332 51.2726L57.2539 50.2659L66.7358 33.1986Z" fill="#3E363F"/>
<defs>
<filter id="filter0_d_434_952" x="5.91619" y="8.50488" width="72.1872" height="72.1872" filterUnits="userSpaceOnUse" color-interpolation-filters="sRGB">
<feFlood flood-opacity="0" result="BackgroundImageFix"/>
<feColorMatrix in="SourceAlpha" type="matrix" values="0 0 0 0 0 0 0 0 0 0 0 0 0 0 0 0 0 0 127 0" result="hardAlpha"/>
<feOffset dy="1.951"/>
<feGaussianBlur stdDeviation="0.9755"/>
<feComposite in2="hardAlpha" operator="out"/>
<feColorMatrix type="matrix" values="0 0 0 0 0 0 0 0 0 0 0 0 0 0 0 0 0 0 0.25 0"/>
<feBlend mode="normal" in2="BackgroundImageFix" result="effect1_dropShadow_434_952"/>
<feBlend mode="normal" in="SourceGraphic" in2="effect1_dropShadow_434_952" result="shape"/>
</filter>
</defs>
</svg>
