<svg width="88" height="100" viewBox="0 0 88 100" fill="none" xmlns="http://www.w3.org/2000/svg">
<g clip-path="url(#clip0_683_3543)">
<path d="M48.3708 0.0197754C48.8814 7.12315 48.351 14.0898 46.479 20.9453C46.3635 20.4894 46.236 20.0367 46.0966 19.5875C44.1229 13.2512 39.8666 7.82273 33.1613 3.69868C28.5955 0.207539 20.4482 -1.30027 9.22947 1.93855C9.70416 6.63475 18.8185 7.17526 21.9206 7.60184C15.8248 8.94509 9.09445 14.1801 0.111328 15.2426C8.40753 19.6189 19.6599 16.17 27.34 12.7767C26.9449 16.5141 24.4518 18.9018 22.1649 25.3493C32.2561 23.0156 37.1122 17.4552 37.3875 12.1506C39.7447 14.7269 41.3459 17.5957 42.3318 20.7607C43.0712 23.1341 43.4584 25.6957 43.512 28.4282C44.3291 29.4767 44.9677 30.6719 45.3713 31.9683C46.5112 31.3217 47.7567 30.8821 49.0499 30.6698C50.3383 27.5221 51.789 24.9546 53.3812 23.0419C56.5204 19.2719 59.9143 17.863 64.6681 18.7824L64.675 18.7497C71.5533 23.5383 69.7624 31.6126 67.2594 37.6052C71.8137 36.1968 74.3058 33.401 74.3137 28.5398C78.0999 31.0229 79.6772 35.0995 80.7615 39.5238C82.2848 34.9873 81.9793 30.0757 78.0649 25.8436L87.2094 29.3246C81.3183 22.286 75.7499 14.7839 64.9985 14.8335C59.4168 13.8947 54.4689 15.8814 50.7841 20.0156C52.3474 13.4227 52.7748 6.7375 52.32 0.0197754H48.3706H48.3708ZM34.7105 28.0527C30.7016 28.0527 27.4915 31.2561 27.4915 35.2649C27.4915 36.7016 27.9056 38.0343 28.6189 39.1548C29.4048 38.9804 30.2072 38.8919 31.0122 38.8911C33.7666 38.8911 36.2928 39.9052 38.2442 41.5746C40.4468 40.3434 41.9236 37.9864 41.9236 35.2649C41.9236 31.2561 38.7198 28.0525 34.7105 28.0525V28.0527ZM22.3888 31.9949C18.3797 31.9949 15.1693 35.1985 15.1693 39.2075C15.1693 42.5782 17.4373 45.3879 20.5428 46.1959C21.3875 43.9185 22.9563 41.9886 24.9668 40.6841C24.2463 39.4016 23.7889 37.9882 23.6214 36.5267C23.4538 35.0653 23.5794 33.5851 23.9909 32.1727C23.4649 32.0549 22.9276 31.9952 22.3885 31.9947L22.3888 31.9949ZM50.8499 34.4607C46.8411 34.4607 43.6312 37.6643 43.6312 41.6732C43.6312 42.4105 43.7388 43.1217 43.9409 43.7896C44.829 43.5659 45.7414 43.4531 46.6573 43.4535C50.0757 43.4535 53.1436 45.0105 55.1953 47.4485C56.9409 46.1352 58.063 44.0449 58.063 41.6732C58.063 37.6647 54.8592 34.4609 50.8499 34.4609V34.4607ZM31.0122 42.8333C27.0031 42.8333 23.7928 46.0438 23.7928 50.0527C23.7928 54.0616 27.0037 57.2721 31.0122 57.2721C35.0206 57.2721 38.2316 54.0616 38.2316 50.0527C38.2316 46.0438 35.0212 42.8333 31.0122 42.8333ZM62.0577 44.3168C61.9324 44.3168 61.8056 44.3172 61.6822 44.3236C61.0219 47.0107 59.381 49.3183 57.166 50.8504C57.5996 52.0558 57.8203 53.3275 57.8183 54.6086C57.8183 55.4841 57.708 56.3348 57.5151 57.1533C58.752 58.1533 60.3295 58.7489 62.0573 58.7489C66.0666 58.7489 69.2767 55.5383 69.2767 51.5295C69.2767 47.5206 66.0666 44.3168 62.0573 44.3168H62.0577ZM46.6569 47.3957C44.9333 47.3957 43.3565 47.9907 42.121 48.9843C42.1548 49.3373 42.1738 49.6915 42.1738 50.0527C42.1738 52.6272 41.2919 55.0025 39.8136 56.8961C40.7609 59.7717 43.4487 61.8276 46.6567 61.8276C47.6058 61.8313 48.5462 61.647 49.4238 61.2855C50.3014 60.924 51.0987 60.3924 51.7698 59.7213C52.4409 59.0502 52.9725 58.2528 53.3341 57.3753C53.6956 56.4977 53.8798 55.5573 53.8761 54.6082C53.8761 50.5993 50.6658 47.3957 46.6567 47.3957H46.6569ZM16.2244 49.7362C12.2153 49.7362 9.01196 52.9464 9.01196 56.9556C9.01196 59.478 10.2828 61.6807 12.2225 62.9683C13.1466 58.7194 16.5063 55.3639 20.7535 54.4367C20.2451 53.2581 19.9461 51.9998 19.87 50.7185C18.7636 50.0732 17.5053 49.7341 16.2244 49.7362ZM23.1274 58.116C19.1181 58.116 15.908 61.3194 15.908 65.3282C15.9043 66.2773 16.0885 67.2178 16.45 68.0953C16.8115 68.9729 17.3431 69.7702 18.0143 70.4413C18.6854 71.1124 19.4827 71.6441 20.3603 72.0056C21.2378 72.3671 22.1783 72.5513 23.1274 72.5476C27.1358 72.5476 30.3396 69.3373 30.3396 65.3282C30.3396 63.7029 29.8155 62.2107 28.9223 61.0097C26.8155 60.6061 24.8698 59.6036 23.3183 58.1223C23.255 58.1206 23.1911 58.116 23.1274 58.116ZM36.7084 59.6383C35.6776 60.2557 34.5532 60.701 33.3793 60.9569C33.9567 62.3018 34.2822 63.7767 34.2822 65.3282C34.2822 67.6137 33.586 69.7445 32.3966 71.5187C33.7103 72.9149 35.5801 73.7803 37.6645 73.7803C38.6136 73.784 39.554 73.5997 40.4315 73.2382C41.309 72.8766 42.1063 72.345 42.7773 71.6739C43.4484 71.0028 43.98 70.2055 44.3415 69.3279C44.703 68.4504 44.8872 67.51 44.8835 66.5609C44.8835 66.2388 44.8577 65.9221 44.8175 65.6115C41.2753 65.0177 38.2879 62.7415 36.7084 59.6383ZM55.913 60.8318C54.2915 63.2316 51.7594 64.9683 48.8261 65.5523C49.8843 68.2151 52.4731 70.0812 55.5307 70.0812C59.5398 70.0812 62.7501 66.8776 62.7501 62.8687C62.7501 62.8027 62.7451 62.7364 62.7434 62.6708C62.5166 62.6848 62.2877 62.6907 62.0577 62.6907C59.7909 62.6907 57.678 62.005 55.9132 60.8316L55.913 60.8318ZM47.8961 70.9847C46.9251 73.2089 45.263 75.0607 43.1563 76.2653C43.9959 79.3208 46.7753 81.5396 50.1115 81.5396C54.1208 81.5396 57.3246 78.336 57.3246 74.327C57.3246 74.1772 57.32 74.0263 57.3111 73.8786C56.731 73.9725 56.1367 74.0238 55.5312 74.0238C52.5845 74.0238 49.8966 72.8647 47.8961 70.9847ZM29.6873 74.3468C28.4509 75.2497 27.0413 75.8871 25.5468 76.2191C25.3688 76.8544 25.278 77.5109 25.2767 78.1706C25.2767 82.1799 28.4801 85.3837 32.489 85.3837C36.4978 85.3837 39.7084 82.1799 39.7084 78.1706C39.7084 77.9584 39.6995 77.7455 39.6818 77.5377C39.0272 77.659 38.3527 77.7225 37.6643 77.7225C34.5472 77.7225 31.717 76.4257 29.6875 74.347L29.6873 74.3468ZM16.7586 74.4786C16.2139 75.4959 15.908 76.6584 15.908 77.9006C15.908 81.9094 19.1183 85.1132 23.1274 85.1132C23.3366 85.1132 23.5421 85.104 23.7468 85.0869C22.2362 83.1831 21.3339 80.778 21.3339 78.1708C21.3339 77.5561 21.3888 76.9535 21.4858 76.3649C19.7851 76.1113 18.1668 75.4656 16.7586 74.4788V74.4786ZM42.7012 82.6474C42.4469 83.2212 42.1448 83.7725 41.7983 84.2957C43.948 86.1782 45.3731 88.8696 45.589 91.8839C49.2822 91.7447 52.2286 88.8755 52.4982 85.2189C51.7282 85.3881 50.9307 85.4826 50.1115 85.4826C47.2736 85.4826 44.6763 84.4067 42.7014 82.6476L42.7012 82.6474ZM39.0949 87.1438C37.2432 88.513 34.9573 89.3259 32.489 89.3259C31.1296 89.3265 29.7819 89.0762 28.5134 88.5875C27.716 89.7485 27.2476 91.1544 27.2476 92.6816C27.2476 96.6907 30.4512 99.901 34.4603 99.901C35.4094 99.9047 36.3498 99.7204 37.2273 99.3589C38.1049 98.9974 38.9022 98.4657 39.5733 97.7946C40.2444 97.1235 40.7761 96.3262 41.1376 95.4487C41.4991 94.5711 41.6833 93.6307 41.6797 92.6816C41.6797 90.4432 40.6765 88.4626 39.0953 87.1436L39.0949 87.1438Z" fill="#3E363F"/>
</g>
<defs>
<clipPath id="clip0_683_3543">
<rect width="87.3418" height="100" fill="white"/>
</clipPath>
</defs>
</svg>
