<svg width="545" height="150" viewBox="0 0 545 150" fill="none" xmlns="http://www.w3.org/2000/svg">
<path d="M490.476 21.17C486.112 24.7598 484 34.52 484 34.52C484.849 34.1217 492.307 32.2535 496.351 28.967C500.573 25.5368 504 16.9998 504 16.9998C504 16.9998 494.864 17.5602 490.476 21.17Z" fill="#9ADC80" stroke="#9ADC80" stroke-width="2.43359"/>
<path d="M464.847 35.1741C467.521 36.592 472.782 35.6253 472.782 35.6253C472.41 35.2877 469.95 31.9854 467.492 30.6627C464.926 29.2821 459.999 29.3465 459.999 29.3465C459.999 29.3465 462.158 33.7482 464.847 35.1741Z" fill="#9ADC80" stroke="#9ADC80" stroke-width="2.43359"/>
<line x1="81" y1="119" x2="519" y2="119" stroke="#21409A" stroke-width="10"/>
<path d="M478.333 40L473 25.1034L476.733 24L481 39.4483L478.333 40Z" fill="#9ADC80" stroke="#9ADC80"/>
<path d="M132.3 53.5V67.7H155.2V80.9H132.3V96.3H158.2V110H115.2V39.8H158.2V53.5H132.3ZM205.102 110L190.502 83.5H186.402V110H169.302V39.8H198.002C203.535 39.8 208.235 40.7667 212.102 42.7C216.035 44.6333 218.968 47.3 220.902 50.7C222.835 54.0333 223.802 57.7667 223.802 61.9C223.802 66.5667 222.468 70.7333 219.802 74.4C217.202 78.0667 213.335 80.6667 208.202 82.2L224.402 110H205.102ZM186.402 71.4H197.002C200.135 71.4 202.468 70.6333 204.002 69.1C205.602 67.5667 206.402 65.4 206.402 62.6C206.402 59.9333 205.602 57.8333 204.002 56.3C202.468 54.7667 200.135 54 197.002 54H186.402V71.4ZM284.536 122L275.536 109.9C272.869 110.433 270.269 110.7 267.736 110.7C261.136 110.7 255.069 109.167 249.536 106.1C244.069 103.033 239.703 98.7667 236.436 93.3C233.236 87.7667 231.636 81.5667 231.636 74.7C231.636 67.8333 233.236 61.6667 236.436 56.2C239.703 50.7333 244.069 46.4667 249.536 43.4C255.069 40.3333 261.136 38.8 267.736 38.8C274.336 38.8 280.369 40.3333 285.836 43.4C291.369 46.4667 295.703 50.7333 298.836 56.2C302.036 61.6667 303.636 67.8333 303.636 74.7C303.636 80.7 302.403 86.2 299.936 91.2C297.536 96.1333 294.169 100.233 289.836 103.5L305.236 122H284.536ZM249.136 74.7C249.136 80.9 250.803 85.8667 254.136 89.6C257.536 93.2667 262.069 95.1 267.736 95.1C273.336 95.1 277.803 93.2333 281.136 89.5C284.536 85.7667 286.236 80.8333 286.236 74.7C286.236 68.5 284.536 63.5667 281.136 59.9C277.803 56.1667 273.336 54.3 267.736 54.3C262.069 54.3 257.536 56.1333 254.136 59.8C250.803 63.4667 249.136 68.4333 249.136 74.7ZM357.045 97.6H330.845L326.645 110H308.745L334.145 39.8H353.945L379.345 110H361.245L357.045 97.6ZM352.645 84.4L343.945 58.7L335.345 84.4H352.645ZM437.575 39.8V53.5H418.975V110H401.875V53.5H383.275V39.8H437.575ZM479.357 110.7C472.757 110.7 466.69 109.167 461.157 106.1C455.69 103.033 451.324 98.7667 448.057 93.3C444.857 87.7667 443.257 81.5667 443.257 74.7C443.257 67.8333 444.857 61.6667 448.057 56.2C451.324 50.7333 455.69 46.4667 461.157 43.4C466.69 40.3333 472.757 38.8 479.357 38.8C485.957 38.8 491.99 40.3333 497.457 43.4C502.99 46.4667 507.324 50.7333 510.457 56.2C513.657 61.6667 515.257 67.8333 515.257 74.7C515.257 81.5667 513.657 87.7667 510.457 93.3C507.257 98.7667 502.924 103.033 497.457 106.1C491.99 109.167 485.957 110.7 479.357 110.7ZM479.357 95.1C484.957 95.1 489.424 93.2333 492.757 89.5C496.157 85.7667 497.857 80.8333 497.857 74.7C497.857 68.5 496.157 63.5667 492.757 59.9C489.424 56.1667 484.957 54.3 479.357 54.3C473.69 54.3 469.157 56.1333 465.757 59.8C462.424 63.4667 460.757 68.4333 460.757 74.7C460.757 80.9 462.424 85.8667 465.757 89.6C469.157 93.2667 473.69 95.1 479.357 95.1Z" fill="#21409A"/>
<circle cx="529.5" cy="119.5" r="13" stroke="#21409A" stroke-width="5"/>
<circle cx="15.5" cy="119.5" r="13" stroke="#21409A" stroke-width="5"/>
<path fill-rule="evenodd" clip-rule="evenodd" d="M100.839 124V39.7598H76.7195L53.3195 98.0798L29.6795 39.7598H5.43945V116.482C6.73582 112.154 10.7493 109 15.4995 109C20.9875 109 25.4921 113.21 25.9595 118.577V73.3598L44.9195 124H61.4795L80.3195 73.4798V124H100.839ZM25.9595 120.423C25.8488 121.693 25.5118 122.899 24.989 124H25.9595V120.423ZM6.0099 124C5.78396 123.524 5.59272 123.029 5.43945 122.517V124H6.0099Z" fill="#21409A"/>
</svg>
