<svg width="159" height="27" viewBox="0 0 159 27" fill="none" xmlns="http://www.w3.org/2000/svg">
<line x1="155" y1="21" x2="1" y2="21" stroke="url(#paint0_linear_418_953)" stroke-width="12"/>
<path d="M149.31 2.72727V10H148.429V3.65057H148.386L146.611 4.82955V3.93466L148.429 2.72727H149.31ZM151.597 10.0568C151.421 10.0568 151.271 9.99408 151.146 9.86861C151.02 9.74313 150.957 9.5928 150.957 9.41761C150.957 9.24242 151.02 9.09209 151.146 8.96662C151.271 8.84115 151.421 8.77841 151.597 8.77841C151.772 8.77841 151.922 8.84115 152.048 8.96662C152.173 9.09209 152.236 9.24242 152.236 9.41761C152.236 9.53362 152.206 9.64015 152.147 9.73722C152.09 9.83428 152.013 9.91241 151.916 9.97159C151.821 10.0284 151.715 10.0568 151.597 10.0568ZM155.852 10.0994C155.435 10.0994 155.06 10.0166 154.726 9.85085C154.392 9.68513 154.125 9.45786 153.923 9.16903C153.722 8.88021 153.612 8.55114 153.593 8.18182H154.445C154.479 8.51089 154.628 8.78314 154.893 8.99858C155.16 9.21165 155.48 9.31818 155.852 9.31818C156.15 9.31818 156.415 9.24834 156.647 9.10866C156.882 8.96899 157.065 8.77723 157.198 8.53338C157.333 8.28717 157.4 8.009 157.4 7.69886C157.4 7.38163 157.33 7.09872 157.191 6.85014C157.053 6.5992 156.864 6.40152 156.622 6.2571C156.381 6.11269 156.105 6.0393 155.795 6.03693C155.572 6.03456 155.344 6.06889 155.11 6.13991C154.875 6.20857 154.682 6.29735 154.531 6.40625L153.707 6.30682L154.147 2.72727H157.926V3.50852H154.886L154.63 5.65341H154.673C154.822 5.53504 155.009 5.43679 155.234 5.35866C155.459 5.28054 155.693 5.24148 155.937 5.24148C156.382 5.24148 156.779 5.34801 157.127 5.56108C157.477 5.77178 157.752 6.06061 157.95 6.42756C158.152 6.79451 158.252 7.21354 158.252 7.68466C158.252 8.14867 158.148 8.56297 157.94 8.92756C157.734 9.28977 157.45 9.57623 157.088 9.78693C156.725 9.99527 156.313 10.0994 155.852 10.0994Z" fill="#3E363F"/>
<path d="M3.125 10.0994C2.58996 10.0994 2.13423 9.95384 1.75781 9.66264C1.38139 9.36908 1.09375 8.94413 0.894886 8.38778C0.696023 7.82907 0.596591 7.15436 0.596591 6.36364C0.596591 5.57765 0.696023 4.90649 0.894886 4.35014C1.09612 3.79143 1.38494 3.36529 1.76136 3.07173C2.14015 2.7758 2.5947 2.62784 3.125 2.62784C3.6553 2.62784 4.10866 2.7758 4.48509 3.07173C4.86387 3.36529 5.1527 3.79143 5.35156 4.35014C5.55279 4.90649 5.65341 5.57765 5.65341 6.36364C5.65341 7.15436 5.55398 7.82907 5.35511 8.38778C5.15625 8.94413 4.86861 9.36908 4.49219 9.66264C4.11577 9.95384 3.66004 10.0994 3.125 10.0994ZM3.125 9.31818C3.6553 9.31818 4.06723 9.0625 4.3608 8.55114C4.65436 8.03977 4.80114 7.31061 4.80114 6.36364C4.80114 5.7339 4.73366 5.19768 4.59872 4.75497C4.46615 4.31226 4.27438 3.97491 4.02344 3.7429C3.77486 3.51089 3.47538 3.39489 3.125 3.39489C2.59943 3.39489 2.18868 3.65412 1.89276 4.17259C1.59683 4.68868 1.44886 5.41903 1.44886 6.36364C1.44886 6.99337 1.51515 7.52841 1.64773 7.96875C1.7803 8.40909 1.97088 8.74408 2.21946 8.97372C2.47041 9.20336 2.77225 9.31818 3.125 9.31818ZM7.37393 10.0568C7.19875 10.0568 7.04841 9.99408 6.92294 9.86861C6.79747 9.74313 6.73473 9.5928 6.73473 9.41761C6.73473 9.24242 6.79747 9.09209 6.92294 8.96662C7.04841 8.84115 7.19875 8.77841 7.37393 8.77841C7.54912 8.77841 7.69946 8.84115 7.82493 8.96662C7.9504 9.09209 8.01314 9.24242 8.01314 9.41761C8.01314 9.53362 7.98355 9.64015 7.92436 9.73722C7.86754 9.83428 7.7906 9.91241 7.69354 9.97159C7.59884 10.0284 7.49231 10.0568 7.37393 10.0568ZM11.6291 10.0994C11.2124 10.0994 10.8372 10.0166 10.5034 9.85085C10.1696 9.68513 9.90205 9.45786 9.70082 9.16903C9.49959 8.88021 9.3895 8.55114 9.37056 8.18182H10.2228C10.256 8.51089 10.4051 8.78314 10.6703 8.99858C10.9378 9.21165 11.2574 9.31818 11.6291 9.31818C11.9274 9.31818 12.1925 9.24834 12.4245 9.10866C12.6589 8.96899 12.8424 8.77723 12.975 8.53338C13.1099 8.28717 13.1774 8.009 13.1774 7.69886C13.1774 7.38163 13.1075 7.09872 12.9679 6.85014C12.8306 6.5992 12.6412 6.40152 12.3997 6.2571C12.1582 6.11269 11.8824 6.0393 11.5723 6.03693C11.3497 6.03456 11.1213 6.06889 10.8869 6.13991C10.6525 6.20857 10.4596 6.29735 10.3081 6.40625L9.4842 6.30682L9.92454 2.72727H13.7029V3.50852H10.6632L10.4075 5.65341H10.4501C10.5993 5.53504 10.7863 5.43679 11.0112 5.35866C11.2361 5.28054 11.4705 5.24148 11.7143 5.24148C12.1594 5.24148 12.5559 5.34801 12.9039 5.56108C13.2543 5.77178 13.5289 6.06061 13.7278 6.42756C13.929 6.79451 14.0297 7.21354 14.0297 7.68466C14.0297 8.14867 13.9255 8.56297 13.7172 8.92756C13.5112 9.28977 13.2271 9.57623 12.8649 9.78693C12.5027 9.99527 12.0907 10.0994 11.6291 10.0994Z" fill="#3E363F"/>
<path d="M81.3097 2.72727V10H80.429V3.65057H80.3864L78.6108 4.82955V3.93466L80.429 2.72727H81.3097Z" fill="#3E363F"/>
<defs>
<linearGradient id="paint0_linear_418_953" x1="1" y1="15" x2="155" y2="15" gradientUnits="userSpaceOnUse">
<stop stop-color="#78A55A"/>
<stop offset="0.332787" stop-color="#FFCB21"/>
<stop offset="0.650319" stop-color="#F38D15"/>
<stop offset="1" stop-color="#E26D5C"/>
</linearGradient>
</defs>
</svg>
