<svg width="31" height="32" viewBox="0 0 31 32" fill="none" xmlns="http://www.w3.org/2000/svg">
<path d="M15.5 0.5C17.5554 0.5 19.5267 1.31652 20.9801 2.76992C22.4335 4.22333 23.25 6.19457 23.25 8.25C23.25 10.3054 22.4335 12.2767 20.9801 13.7301C19.5267 15.1835 17.5554 16 15.5 16C13.4446 16 11.4733 15.1835 10.0199 13.7301C8.56651 12.2767 7.75 10.3054 7.75 8.25C7.75 6.19457 8.56651 4.22333 10.0199 2.76992C11.4733 1.31652 13.4446 0.5 15.5 0.5ZM15.5 19.875C24.0637 19.875 31 23.3431 31 27.625V31.5H0V27.625C0 23.3431 6.93625 19.875 15.5 19.875Z" fill="white"/>
</svg>
