<svg width="30" height="30" viewBox="0 0 30 30" fill="none" xmlns="http://www.w3.org/2000/svg">
<path d="M16.6667 14.3333L20.8333 18.5C21.1389 18.8056 21.2917 19.1944 21.2917 19.6667C21.2917 20.1389 21.1389 20.5278 20.8333 20.8333C20.5278 21.1389 20.1389 21.2917 19.6667 21.2917C19.1945 21.2917 18.8056 21.1389 18.5 20.8333L13.8333 16.1667C13.6667 16 13.5417 15.8128 13.4583 15.605C13.375 15.3972 13.3333 15.1817 13.3333 14.9583V8.33333C13.3333 7.86111 13.4933 7.465 13.8133 7.145C14.1333 6.825 14.5289 6.66556 15 6.66667C15.4722 6.66667 15.8683 6.82667 16.1883 7.14667C16.5083 7.46667 16.6678 7.86222 16.6667 8.33333V14.3333ZM15 30C11.6389 30 8.62501 29.0067 5.95834 27.02C3.29167 25.0333 1.50001 22.4433 0.583339 19.25C0.44445 18.75 0.493339 18.2778 0.730006 17.8333C0.966672 17.3889 1.33445 17.1111 1.83334 17C2.30556 16.8889 2.72945 16.9933 3.10501 17.3133C3.48056 17.6333 3.73723 18.0289 3.87501 18.5C4.59723 20.9444 5.99334 22.9167 8.06334 24.4167C10.1333 25.9167 12.4456 26.6667 15 26.6667C18.25 26.6667 21.0072 25.5344 23.2717 23.27C25.5361 21.0056 26.6678 18.2489 26.6667 15C26.6667 11.75 25.5345 8.99278 23.27 6.72833C21.0056 4.46389 18.2489 3.33222 15 3.33333C13.0833 3.33333 11.2917 3.77778 9.625 4.66667C7.95834 5.55556 6.55556 6.77778 5.41667 8.33333H8.33334C8.80556 8.33333 9.20167 8.49333 9.52167 8.81333C9.84167 9.13333 10.0011 9.52889 10 10C10 10.4722 9.84 10.8683 9.52001 11.1883C9.20001 11.5083 8.80445 11.6678 8.33334 11.6667H1.66667C1.19445 11.6667 0.798339 11.5067 0.478339 11.1867C0.158339 10.8667 -0.00110534 10.4711 5.76702e-06 10V3.33333C5.76702e-06 2.86111 0.160006 2.465 0.480006 2.145C0.800006 1.825 1.19556 1.66556 1.66667 1.66667C2.13889 1.66667 2.53501 1.82667 2.85501 2.14667C3.17501 2.46667 3.33445 2.86222 3.33334 3.33333V5.58333C4.75001 3.80556 6.47945 2.43056 8.52167 1.45833C10.5639 0.486111 12.7233 0 15 0C17.0833 0 19.035 0.396111 20.855 1.18833C22.675 1.98056 24.2583 3.04944 25.605 4.395C26.9517 5.74278 28.0211 7.32611 28.8133 9.145C29.6056 10.9639 30.0011 12.9156 30 15C30 17.0833 29.6039 19.035 28.8117 20.855C28.0195 22.675 26.9506 24.2583 25.605 25.605C24.2572 26.9517 22.6739 28.0211 20.855 28.8133C19.0361 29.6056 17.0844 30.0011 15 30Z" fill="white"/>
</svg>
