<svg width="29" height="30" viewBox="0 0 29 30" fill="none" xmlns="http://www.w3.org/2000/svg">
<path d="M11.9773 4.07949C12.2576 4.07949 12.5264 4.19083 12.7246 4.38902C12.9227 4.58722 13.0341 4.85602 13.0341 5.13631V16.409H24.3068C24.5622 16.409 24.8089 16.5015 25.0014 16.6694C25.1939 16.8372 25.319 17.0691 25.3538 17.3221L25.3636 17.4659C25.3636 24.469 19.685 29.4431 12.6818 29.4431C9.31839 29.4431 6.09272 28.107 3.71442 25.7287C1.33612 23.3504 0 20.1247 0 16.7613C0 9.75813 4.97409 4.07949 11.9773 4.07949ZM16.2045 0.556763C19.568 0.556763 22.7936 1.89288 25.1719 4.27118C27.5502 6.64948 28.8864 9.87515 28.8864 13.2386C28.8864 13.5189 28.775 13.7877 28.5768 13.9859C28.3786 14.1841 28.1098 14.2954 27.8295 14.2954H16.2045C15.9243 14.2954 15.6555 14.1841 15.4573 13.9859C15.2591 13.7877 15.1477 13.5189 15.1477 13.2386V1.61358C15.1477 1.3333 15.2591 1.06449 15.4573 0.866298C15.6555 0.668106 15.9243 0.556763 16.2045 0.556763Z" fill="white"/>
</svg>
