<svg width="104" height="100" viewBox="0 0 104 100" fill="none" xmlns="http://www.w3.org/2000/svg">
<g clip-path="url(#clip0_683_3466)">
<path d="M16.7931 0.568878H34.4207C37.986 0.566244 41.4649 1.66542 44.3815 3.71597C47.2981 5.76652 49.5097 8.66825 50.7138 12.024C51.0586 12.1275 51.4035 12.2309 51.7552 12.3482C52.0759 12.2378 52.4034 12.1309 52.7345 12.0309C53.9374 8.67386 56.1486 5.77064 59.0652 3.71879C61.9819 1.66693 65.4615 0.566753 69.0276 0.568878H86.6552C86.6552 5.81026 84.3345 10.4999 80.6621 13.6723C94.1172 19.6896 103.448 33.1172 103.448 48.0758C103.448 65.3965 93.5621 74.2585 84.6379 82.2654L83.8586 82.962C79.731 86.6689 74.9966 90.8378 69.7379 94.0585C64.4552 97.2999 58.4414 99.7137 51.7241 99.7137C45.0069 99.7137 38.9931 97.2999 33.7103 94.0585C28.4517 90.8378 23.7172 86.6689 19.5897 82.962L18.8103 82.2654C9.88621 74.262 0 65.3999 0 48.0792C0 33.1206 9.33103 19.693 22.7862 13.6689C20.9023 12.0454 19.3915 10.034 18.3571 7.77237C17.3227 5.51076 16.7892 3.0558 16.7931 0.568878ZM6.89655 48.0792C6.89655 62.2965 14.6759 69.2861 23.8207 77.4965L24.2 77.8344C28.3448 81.5585 32.6586 85.3309 37.3138 88.1827C41.9483 91.024 46.7069 92.8241 51.7241 92.8241C56.7414 92.8241 61.5 91.024 66.1345 88.1827C70.7897 85.3309 75.1 81.562 79.2483 77.8378L79.6276 77.4965C88.7724 69.2827 96.5517 62.2965 96.5517 48.0792C96.5517 31.6447 82.5172 17.2103 64.9345 17.2103C63.8517 17.2103 62.7517 17.2585 61.6586 17.3482C71.3138 23.3827 78.2103 33.1654 79.3 46.1413C79.3378 46.5928 79.2863 47.0473 79.1485 47.4788C79.0107 47.9104 78.7892 48.3106 78.4967 48.6566C78.2041 49.0026 77.8464 49.2876 77.4437 49.4953C77.0411 49.703 76.6015 49.8293 76.15 49.8672C75.6985 49.905 75.244 49.8535 74.8124 49.7156C74.3809 49.5778 73.9807 49.3563 73.6347 49.0638C73.2887 48.7713 73.0037 48.4135 72.796 48.0109C72.5883 47.6082 72.462 47.1686 72.4241 46.7172C70.9138 28.6792 55.3828 17.5447 36.9655 17.2482C20.1172 18.062 6.89655 32.1344 6.89655 48.0792Z" fill="#3E363F"/>
</g>
<defs>
<clipPath id="clip0_683_3466">
<rect width="103.448" height="100" fill="white"/>
</clipPath>
</defs>
</svg>
