<svg width="177" height="177" viewBox="0 0 177 177" fill="none" xmlns="http://www.w3.org/2000/svg">
<path d="M177 88.5C177 106.004 171.81 123.114 162.085 137.668C152.361 152.222 138.539 163.565 122.367 170.263C106.196 176.962 88.4018 178.714 71.2345 175.299C54.0672 171.885 38.298 163.456 25.921 151.079C13.5441 138.702 5.11529 122.933 1.7005 105.765C-1.71429 88.5982 0.038306 70.8038 6.73666 54.6325C13.435 38.4613 24.7783 24.6394 39.332 14.9149C53.8858 5.19043 70.9964 -2.08729e-07 88.5 0V88.5H177Z" fill="#BF4E30"/>
<circle cx="88.5" cy="88.5" r="59" fill="white"/>
<path d="M72.3587 73.8752V76.733L61.9784 100.72H56.3734L66.7537 78.0237H53.3865V73.8752H72.3587ZM80.803 88.4962L76.5624 87.4821L78.0927 73.8752H93.1746V78.1712H82.4624L81.7987 84.1265C82.1551 83.9175 82.696 83.6963 83.4212 83.4627C84.1464 83.2169 84.9576 83.094 85.8549 83.094C87.1578 83.094 88.3133 83.2968 89.3212 83.7024C90.3291 84.108 91.1834 84.698 91.884 85.4724C92.5969 86.2468 93.1377 87.1932 93.5065 88.3118C93.8752 89.4303 94.0596 90.6964 94.0596 92.1099C94.0596 93.3022 93.8752 94.4392 93.5065 95.5208C93.1377 96.5902 92.5785 97.549 91.8287 98.3971C91.0789 99.2329 90.1386 99.8905 89.0077 100.37C87.8769 100.849 86.5371 101.089 84.9884 101.089C83.8329 101.089 82.7144 100.917 81.6327 100.573C80.5634 100.229 79.5985 99.7184 78.738 99.0424C77.8899 98.3664 77.2077 97.549 76.6915 96.5902C76.1875 95.6192 75.9233 94.5129 75.8987 93.2715H81.1718C81.2455 94.0335 81.4422 94.6912 81.7618 95.2443C82.0937 95.7851 82.53 96.203 83.0709 96.498C83.6117 96.793 84.2447 96.9405 84.9699 96.9405C85.646 96.9405 86.2237 96.8115 86.703 96.5533C87.1824 96.2952 87.5696 95.9388 87.8646 95.484C88.1596 95.0169 88.3747 94.476 88.5099 93.8615C88.6574 93.2346 88.7312 92.5585 88.7312 91.8333C88.7312 91.1081 88.6451 90.4505 88.473 89.8605C88.301 89.2705 88.0367 88.7604 87.6802 88.3302C87.3238 87.9 86.869 87.5681 86.3159 87.3346C85.775 87.101 85.142 86.9843 84.4168 86.9843C83.4335 86.9843 82.6714 87.1379 82.1305 87.4452C81.602 87.7525 81.1595 88.1028 80.803 88.4962ZM97.4152 80.4574V79.0377C97.4152 78.0175 97.6365 77.0895 98.079 76.2537C98.5215 75.4178 99.1729 74.7479 100.033 74.244C100.894 73.74 101.951 73.488 103.205 73.488C104.495 73.488 105.571 73.74 106.431 74.244C107.304 74.7479 107.955 75.4178 108.386 76.2537C108.828 77.0895 109.049 78.0175 109.049 79.0377V80.4574C109.049 81.453 108.828 82.3688 108.386 83.2046C107.955 84.0404 107.31 84.7103 106.45 85.2143C105.589 85.7182 104.526 85.9702 103.26 85.9702C101.982 85.9702 100.906 85.7182 100.033 85.2143C99.1729 84.7103 98.5215 84.0404 98.079 83.2046C97.6365 82.3688 97.4152 81.453 97.4152 80.4574ZM100.937 79.0377V80.4574C100.937 80.8876 101.017 81.2994 101.176 81.6927C101.349 82.0738 101.607 82.3872 101.951 82.633C102.307 82.8666 102.738 82.9833 103.241 82.9833C103.77 82.9833 104.2 82.8666 104.532 82.633C104.864 82.3872 105.11 82.0738 105.27 81.6927C105.429 81.2994 105.509 80.8876 105.509 80.4574V79.0377C105.509 78.5829 105.423 78.165 105.251 77.784C105.091 77.3906 104.839 77.0772 104.495 76.8437C104.163 76.5978 103.733 76.4749 103.205 76.4749C102.713 76.4749 102.295 76.5978 101.951 76.8437C101.607 77.0772 101.349 77.3906 101.176 77.784C101.017 78.165 100.937 78.5829 100.937 79.0377ZM110.248 95.5577V94.138C110.248 93.1301 110.469 92.2082 110.911 91.3724C111.366 90.5366 112.024 89.8667 112.884 89.3627C113.757 88.8588 114.826 88.6068 116.092 88.6068C117.371 88.6068 118.44 88.8588 119.301 89.3627C120.161 89.8667 120.812 90.5366 121.255 91.3724C121.697 92.2082 121.919 93.1301 121.919 94.138V95.5577C121.919 96.5656 121.697 97.4875 121.255 98.3233C120.825 99.1592 120.179 99.8291 119.319 100.333C118.459 100.837 117.395 101.089 116.129 101.089C114.851 101.089 113.775 100.837 112.903 100.333C112.03 99.8291 111.366 99.1592 110.911 98.3233C110.469 97.4875 110.248 96.5656 110.248 95.5577ZM113.788 94.138V95.5577C113.788 96.0002 113.886 96.4181 114.083 96.8115C114.279 97.2048 114.55 97.5182 114.894 97.7518C115.25 97.9853 115.662 98.1021 116.129 98.1021C116.719 98.1021 117.18 97.9853 117.512 97.7518C117.844 97.5182 118.071 97.2048 118.194 96.8115C118.33 96.4181 118.397 96.0002 118.397 95.5577V94.138C118.397 93.6955 118.311 93.2838 118.139 92.9027C117.967 92.5094 117.709 92.1959 117.365 91.9624C117.033 91.7166 116.609 91.5937 116.092 91.5937C115.576 91.5937 115.146 91.7166 114.802 91.9624C114.47 92.1959 114.218 92.5094 114.046 92.9027C113.874 93.2838 113.788 93.6955 113.788 94.138ZM117.401 77.7102L104.292 98.6921L101.711 97.3277L114.82 76.3458L117.401 77.7102Z" fill="#BF4E30"/>
</svg>
