<svg width="26" height="26" viewBox="0 0 26 26" fill="none" xmlns="http://www.w3.org/2000/svg">
<circle cx="12.3724" cy="12.3724" r="8.72203" fill="white"/>
<path d="M16.0334 13.2676H13.2667V16.0343H11.8833V13.2676H9.11659V11.8843H11.8833V9.11757H13.2667V11.8843H16.0334V13.2676ZM12.575 5.65918C11.6667 5.65918 10.7672 5.83809 9.92804 6.18569C9.08886 6.53329 8.32636 7.04277 7.68408 7.68506C6.38693 8.9822 5.6582 10.7415 5.6582 12.576C5.6582 14.4104 6.38693 16.1697 7.68408 17.4669C8.32636 18.1091 9.08886 18.6186 9.92804 18.9662C10.7672 19.3138 11.6667 19.4927 12.575 19.4927C14.4094 19.4927 16.1687 18.764 17.4659 17.4669C18.763 16.1697 19.4918 14.4104 19.4918 12.576C19.4918 11.6676 19.3128 10.7682 18.9652 9.92902C18.6176 9.08984 18.1082 8.32734 17.4659 7.68506C16.8236 7.04277 16.0611 6.53329 15.2219 6.18569C14.3827 5.83809 13.4833 5.65918 12.575 5.65918Z" fill="#F38D15"/>
</svg>
