<svg width="32" height="32" viewBox="0 0 32 32" fill="none" xmlns="http://www.w3.org/2000/svg">
<path d="M16.0002 23.0402C12.1194 23.0402 8.9602 19.881 8.9602 16.0002C8.9602 12.1194 12.1194 8.9602 16.0002 8.9602C19.881 8.9602 23.0402 12.1194 23.0402 16.0002C23.0402 19.881 19.881 23.0402 16.0002 23.0402ZM16.0002 7.2002C14.8446 7.2002 13.7002 7.42781 12.6326 7.87006C11.5649 8.3123 10.5948 8.9605 9.77766 9.77766C8.12734 11.428 7.2002 13.6663 7.2002 16.0002C7.2002 18.3341 8.12734 20.5724 9.77766 22.2227C10.5948 23.0399 11.5649 23.6881 12.6326 24.1303C13.7002 24.5726 14.8446 24.8002 16.0002 24.8002C18.3341 24.8002 20.5724 23.8731 22.2227 22.2227C23.8731 20.5724 24.8002 18.3341 24.8002 16.0002C24.8002 14.8446 24.5726 13.7002 24.1303 12.6326C23.6881 11.5649 23.0399 10.5948 22.2227 9.77766C21.4056 8.9605 20.4355 8.3123 19.3678 7.87006C18.3001 7.42781 17.1558 7.2002 16.0002 7.2002ZM16.8802 11.6002H15.1202V15.1202H11.6002V16.8802H15.1202V20.4002H16.8802V16.8802H20.4002V15.1202H16.8802V11.6002Z" fill="#F38D15"/>
</svg>
