<svg width="99" height="100" viewBox="0 0 99 100" fill="none" xmlns="http://www.w3.org/2000/svg">
<path d="M37.2031 0.0804959C36.8641 0.0593094 36.6522 0.171598 36.2285 0.57414C35.72 1.036 35.1056 1.90041 34.47 2.91101C33.1988 4.93219 31.8005 7.80931 28.6438 8.57414C25.72 9.28177 23.3048 7.73939 21.3556 6.6716C19.4065 5.6038 18.0294 5.02329 17.0336 5.36016C16.1226 5.68219 15.4404 6.74999 14.6183 8.51906C13.7942 10.2881 12.9743 12.5996 10.8175 14.1229C9.04842 15.3729 7.13952 15.2902 5.74757 15.4068C5.05266 15.4661 4.47215 15.5508 4.11622 15.6695C3.76028 15.7881 3.66283 15.8686 3.55477 16.0254C1.99969 18.3263 1.87045 23.1568 2.52088 27.9873L3.79842 28.4322C5.02935 28.8771 6.18401 29.4703 7.25817 30.1695C13.0018 22.4576 22.2666 17.4788 32.1819 15.2203C33.4107 13.2224 35.1056 10.6356 37.1183 8.03177C38.4955 6.25846 39.9997 4.48728 41.631 2.90041C40.1692 1.23728 38.6649 0.258462 37.3514 0.093208C37.2878 0.093208 37.2455 0.0720215 37.2031 0.0720215V0.0804959ZM52.309 1.15677C50.6353 1.13558 48.6438 2.01906 46.5675 3.63346C44.3429 5.35804 42.0971 7.83473 40.148 10.3644C39.0463 11.786 38.0929 13.1059 37.309 14.2966C39.809 13.9619 42.3302 13.7902 44.809 13.7924C48.1988 13.7924 51.5251 14.1144 54.6819 14.7479C63.3683 16.4894 72.4573 20.911 79.7878 27.1186C81.3768 28.4534 82.9022 29.8941 84.3005 31.3983C84.7243 31.1441 85.148 30.8898 85.5717 30.678C86.6734 30.1483 87.9022 29.8093 89.1311 29.7458C90.3811 29.6822 91.6522 29.8941 92.8599 30.4449C93.6226 30.8051 94.3429 31.2288 95.0209 31.6949C95.3387 28.7288 95.4446 25.6991 95.1268 23.1144C94.809 20.4025 93.9827 18.3263 92.7751 17.1822C92.648 17.0974 92.6268 17.0551 92.1183 17.1186C91.5887 17.1822 90.7624 17.4576 89.8514 17.7966C88.9404 18.1356 87.9234 18.5381 86.7794 18.7076C85.6353 18.8771 84.1522 18.75 83.0082 17.7966C81.7582 16.7648 81.3133 15.1928 81.2709 13.8771C81.2285 12.5593 81.4616 11.3178 81.6522 10.1758C81.8429 9.036 81.9912 7.99575 81.9488 7.3199C81.9065 6.64406 81.8217 6.50211 81.5887 6.32414C80.5082 5.536 79.4488 5.43007 77.8811 5.74787C76.3344 6.06778 74.4277 6.90889 72.4361 7.86651C70.4234 8.82626 68.3048 9.89405 66.0802 10.5593C63.8556 11.233 61.4192 11.5 59.0675 10.5593C57.6056 9.96821 56.6734 8.7966 56.0378 7.65465C55.4022 6.51482 54.9997 5.32414 54.6183 4.26694C54.2158 3.21185 53.8344 2.29448 53.4743 1.78177C53.1141 1.27117 52.987 1.20126 52.648 1.1716C52.5421 1.1716 52.4361 1.15041 52.309 1.15041V1.15677ZM44.8726 17.6483C31.7794 17.733 17.3938 22.9449 10.2391 32.5635C12.7221 34.9788 14.5336 38.0085 15.5421 41.0381C16.3133 43.3898 15.4149 45.5085 14.7921 47.3517C14.1671 49.2161 13.8005 50.8474 13.9637 51.4619C14.1183 52.0339 14.5336 52.5635 15.3387 53.178C16.1438 53.7924 17.2878 54.4068 18.5378 55.0424C20.9955 56.2924 24.0887 57.5424 25.2751 60.6568C25.7836 61.9703 25.8683 63.3474 25.7836 64.7246C26.3556 64.661 26.9488 64.5974 27.5632 64.5763C27.7751 64.5763 28.0082 64.5551 28.22 64.5551C30.9955 64.5551 34.2158 65.0847 38.0294 66.3559C37.0124 61.6525 36.5039 56.7373 36.5463 51.7373C33.8768 50.1271 31.3344 49.0678 29.0039 48.8135C26.4616 48.5381 24.1522 49.1102 21.6946 51.0593L19.3217 48.0932C22.076 45.8898 25.1056 44.9152 28.1141 44.9576C28.559 44.9576 28.9827 44.9788 29.4065 45.0212C31.8853 45.2754 34.3005 46.1652 36.6946 47.4152C36.97 42.9661 37.6692 38.4534 38.7285 33.9619C36.5887 32.4364 34.8726 31.6525 33.2624 31.483C31.4616 31.2924 29.5336 31.8008 26.7794 33.411L24.8302 30.1483C27.6056 28.4958 30.1268 27.6271 32.6056 27.6483C32.9658 27.6483 33.3048 27.6695 33.6649 27.6907C35.7836 27.9237 37.7539 28.7712 39.7666 30.0635C40.2327 28.411 40.7624 26.7796 41.3344 25.1483L44.9361 26.4195C43.8133 29.5763 42.9022 32.7542 42.1819 35.9322C43.9404 35.3602 45.6988 35.0847 47.4785 35.0212C47.7539 35.0212 48.0294 35 48.3048 35C52.4149 35.0424 56.5039 36.2924 60.487 38.0508L58.9192 41.5254C52.648 38.7288 46.9065 37.6271 41.3132 40.4025C40.5929 44.7034 40.2751 48.9619 40.3175 53.1356C42.7116 51.8856 45.2539 51.2288 47.9446 51.0805C48.3048 51.0593 48.6649 51.0593 49.0463 51.0593H49.4065C52.8599 51.1017 56.5039 51.9491 60.2116 53.4534L58.7709 56.9703C51.4827 54.0042 45.5505 53.9407 40.5294 57.4364C40.9743 63.0932 42.1607 68.5169 44.131 73.6017C46.6099 70.911 49.5971 68.8559 53.2624 67.8602C54.8726 67.4152 56.6099 67.161 58.4531 67.1398H59.2582C62.5633 67.2246 66.2285 67.9661 70.3387 69.4491C71.3768 67.3093 71.737 64.7034 71.8641 61.7585C72.0336 57.9025 71.7582 53.6017 72.7116 49.4915V49.4703C73.7073 45.2966 76.2497 39.8729 79.6819 35.678C80.2116 35.0212 80.7836 34.4068 81.3556 33.8135C80.1056 32.5 78.7497 31.2288 77.3302 30.0212C70.487 24.2585 61.9065 20.0847 53.9192 18.4746C51.059 17.9025 47.987 17.6271 44.8726 17.6483ZM4.12893 32.7542C1.29418 39.5763 -0.502428 50.5932 0.198843 61.3983C0.957318 73.1144 4.61622 84.4703 12.0484 90.3813C17.1395 94.4068 26.5039 97.2246 34.8302 96.9703C35.7412 96.928 36.631 96.8644 37.5209 96.7796C37.7963 96.3135 38.0717 95.7839 38.3471 95.2119C27.7116 94.7246 20.0209 90.4237 14.8281 85.2119C9.23486 79.6186 6.46579 73.072 5.43189 68.9407L9.13105 68.0085C10.0018 71.5042 12.5484 77.5212 17.5421 82.5212C22.4149 87.3941 29.5336 91.3983 40.1268 91.4407C41.0166 89.4703 41.97 87.3941 43.0505 85.4025L43.0294 85.3813C40.3599 83.3475 38.2412 81.3135 36.2921 80.572C34.5548 79.9152 32.2455 80.3813 29.7243 80.8686C28.4743 81.1229 27.1819 81.3771 25.826 81.2924C24.47 81.2076 22.9446 80.678 21.8641 79.4703L21.8429 79.4491C20.6565 78.0932 20.3599 76.3559 20.3599 74.7034C20.381 73.072 20.6777 71.3771 20.9955 69.7458C21.6522 66.4407 22.1607 63.1991 21.7158 62.0127C21.3133 60.9322 19.3217 59.7034 16.8005 58.4322C15.5399 57.7966 14.2158 57.1186 13.0272 56.2288C11.8366 55.3178 10.7285 54.089 10.2815 52.4364C9.64376 50.0847 10.5569 47.9873 11.1755 46.1441C11.7942 44.3008 12.0929 42.733 11.9234 42.2246C10.7031 38.5805 7.82172 34.7458 4.12893 32.7542ZM89.3005 33.5169C88.6438 33.5381 87.987 33.75 87.2455 34.1102C85.7624 34.8305 84.1311 36.2712 82.648 38.0932C79.6607 41.7373 77.2243 46.928 76.4404 50.3602C75.6565 53.7076 75.8472 57.7966 75.6777 61.928C75.487 66.0381 74.9149 70.339 72.0336 73.7924C69.0887 77.2881 64.7031 78.0932 60.6777 78.75C56.6734 79.4068 52.9446 79.9576 50.5294 81.8432C47.9234 83.8771 45.487 88.9195 43.3895 93.4958C42.7963 94.7881 42.2243 96.0169 41.631 97.1822C53.8133 93.6864 64.1734 88.6017 71.9277 81.483C80.3811 73.7076 85.8048 63.5169 87.2243 49.7881L91.0378 50.1695C89.5124 64.7034 83.6014 75.9322 74.5124 84.3008C66.8641 91.3347 57.0336 96.3559 45.7412 99.9152C62.9658 100.148 76.4827 93.9407 85.6353 82.4152H85.6565C90.7412 76.0169 95.8048 65.1271 97.5844 55.233C98.4743 50.2966 98.5378 45.5932 97.5209 41.8856C96.5251 38.178 94.6183 35.4873 91.2497 33.9195C90.6565 33.6441 90.1056 33.5169 89.5548 33.5169H89.3005ZM28.4319 68.3686C27.2031 68.3686 26.1014 68.4958 25.148 68.7076H25.1268C24.9997 69.3008 24.8514 69.8941 24.7455 70.4873C24.4277 72.0763 24.1734 73.5805 24.1734 74.7246C24.1734 75.8898 24.4065 76.5678 24.7031 76.928C25.0633 77.3093 25.3599 77.4364 26.059 77.4788C26.7582 77.5212 27.7963 77.3729 29.0039 77.1398C31.398 76.6525 34.4912 75.8263 37.648 77.0127C39.7666 77.7966 41.4827 79.1737 43.1141 80.5297C41.4827 77.3941 40.1692 74.1102 39.1522 70.6991L39.1099 70.8051C34.6395 69.0678 31.1649 68.3898 28.4319 68.3686ZM58.4955 70.9746C56.9488 70.9958 55.5505 71.1864 54.2794 71.5466C50.826 72.5 48.1353 74.5339 45.826 77.4576C46.2073 78.2627 46.631 79.0466 47.0548 79.8305C47.4149 79.4915 47.7963 79.1525 48.1988 78.8347C51.7158 76.0805 56.1649 75.6356 60.0844 75C63.1565 74.4915 65.8048 73.9195 67.7116 72.5847C64.47 71.5254 61.6311 71.0169 59.1522 70.9746H58.4955Z" fill="#3E363F"/>
</svg>
