<svg width="107" height="100" viewBox="0 0 107 100" fill="none" xmlns="http://www.w3.org/2000/svg">
<path d="M106.606 49.3769C104.452 11.9372 85.1109 6.46316 69.5179 6.46138C65.5779 6.46316 61.8794 6.81117 58.7562 7.08461C58.7295 5.38184 58.8023 3.55833 59.0882 1.54306C59.0935 1.51465 59.0811 1.48979 59.0776 1.46316C59.0811 1.44895 59.0882 1.43475 59.0882 1.42054C59.0882 0.793768 57.9092 0.28418 56.4497 0.28418C54.9937 0.28418 53.8148 0.793768 53.8148 1.42054C53.4154 3.45196 52.8713 5.4522 52.1866 7.40598C31.6131 7.53027 4.51256 10.7938 0.375486 48.1056C-2.62522 75.1847 23.8219 99.716 53.5751 99.716C83.3283 99.716 108.17 76.5892 106.606 49.3769ZM59.8641 12.335C60.5903 12.271 61.3432 12.2053 62.1173 12.1432C61.1869 12.5178 60.2832 12.9067 59.4327 13.2973C59.3705 13.0168 59.3279 12.683 59.2711 12.3847L59.8641 12.335ZM49.9937 12.7575C49.7611 13.2423 49.5339 13.7075 49.3155 14.1354C48.7918 13.6615 48.2385 13.2214 47.6589 12.8179C48.4366 12.7913 49.2143 12.7735 49.9937 12.7575ZM90.0701 78.988C80.8283 88.7767 67.5257 94.3893 53.5751 94.3893C39.3581 94.3893 25.237 88.0967 15.7981 77.5569C8.1507 69.0146 4.5534 58.7643 5.67023 48.6915C7.76718 29.7852 16.1319 20.7547 26.867 16.4774C37.2682 14.5455 47.0552 18.0931 47.0552 18.0931C47.0552 18.0931 24.8091 12.5711 16.0857 41.1542C27.0641 24.0395 45.9561 29.0768 50.9259 22.7682C50.9259 34.9646 59.7896 29.0466 64.2693 34.5402C70.0328 41.6034 72.1422 54.2597 78.7722 56.7526C72.2416 42.7327 82.9341 43.2796 67.911 24.4639C75.8247 29.3804 79.928 24.4053 90.7342 28.8353C81.4888 13.7235 66.6983 18.0931 66.6983 18.0931C66.6983 18.0931 72.7175 12.6084 79.0989 12.7611C89.8801 15.2789 99.7967 23.7501 101.29 49.684C101.897 60.2753 97.9128 70.6819 90.0701 78.988Z" fill="#3E363F"/>
</svg>
