<svg width="85" height="100" viewBox="0 0 85 100" fill="none" xmlns="http://www.w3.org/2000/svg">
<g clip-path="url(#clip0_674_3004)">
<path d="M65.6812 13.5469C65.7675 12.8672 65.7741 12.1875 65.9533 11.5781C66.2718 10.5156 66.5571 9.375 67.1078 8.48437C67.831 7.32812 68.9723 7.35937 70.2728 8.30469C70.5183 7.64844 70.651 6.88281 71.0292 6.36719C71.7259 5.41406 72.4557 4.375 73.3647 3.78906C74.6586 2.95312 75.5145 3.61719 76.4501 5.82812C77.8833 5.15625 79.4359 3.74219 80.8624 5.52344C82.1895 7.17969 81.1477 8.90625 80.4577 10.6016C80.7563 10.7656 81.0018 10.8984 81.2473 11.0469C82.5278 11.8125 82.9989 13.3672 82.0302 14.7578C81.0947 16.1016 79.7676 17.0625 78.5733 18.2266C79.8871 20.7266 78.9117 21.9375 74.3069 23.25C74.1676 24.2578 74.2737 25.3359 73.8823 25.9922C73.2453 27.0469 72.1505 26.8438 71.1818 26.4844C69.2377 25.7656 67.3931 26.1016 65.6547 27.25C64.1883 28.2266 62.7618 29.2969 61.4414 30.5234C63.412 30.0859 65.3628 29.4453 67.3533 29.2578C69.6092 29.0469 71.8917 29.1797 74.1609 29.3125C74.7183 29.3437 75.2358 29.9922 75.7932 30.3047C76.2444 30.5547 76.7155 30.7656 77.1932 30.9141C78.7989 31.3984 79.1439 31.8984 79.1108 33.8359C80.3847 34.4453 81.1079 35.3984 80.3582 37.1406C80.2852 37.3047 80.4577 37.6484 80.5638 37.875C80.6833 38.125 80.8691 38.3203 81.0084 38.5547C81.7648 39.8125 82.415 41.1953 81.6719 42.6641C80.889 44.2188 79.489 44.3203 78.0956 44.125C77.7373 44.0781 77.3856 43.9922 77.0472 43.9297C76.3837 45.9922 75.4283 46.3359 73.9221 45.0234C73.2785 44.4609 72.7344 43.7266 72.1439 43.0703C70.2064 44.8125 69.523 44.4766 67.8907 40.9297C66.0661 41.6562 65.3827 41.2109 64.8452 38.9766C64.3808 37.0469 63.7438 36.2188 62.0054 36.2734C60.6319 36.3203 59.2717 36.9297 57.9182 37.3594C57.5068 37.4922 57.1551 37.8594 56.9892 37.7422L53.3134 33.3672C53.5854 32.6406 54.103 31.5 54.4347 30.2969C54.6537 29.5 54.7067 28.6016 54.6736 27.7578C54.5807 25.5703 54.0233 24.8359 52.2252 24.2266C50.4337 23.625 49.9825 22.6016 50.7058 20.8594C49.9095 20.1328 49.0204 19.5234 48.3636 18.6641C47.5143 17.5547 47.9787 16.5469 48.9342 15.8438C48.1977 14.7812 47.3749 13.8906 46.8707 12.8047C46.1474 11.2578 46.5455 10.4844 48.1446 10.0078C48.0783 9.47656 47.9854 8.9375 47.9456 8.38281C47.8394 6.85156 47.9721 5.32031 49.1996 4.45312C50.3541 3.63281 51.5086 4.21875 52.4906 5.07031C53.1873 5.67187 53.7247 6.14062 54.7267 5.75C55.8281 5.32031 56.3722 6.42969 56.7106 7.48437C58.3295 7.41406 58.7608 7.80469 59.1656 9.57031C59.358 10.3984 59.2783 11.3437 60.1608 11.8516C60.4395 12.0078 60.5324 12.7734 60.5855 13.2812C61.0698 17.8906 60.8575 22.4531 59.7163 26.9219C59.6101 27.3281 59.5305 27.7422 59.4442 28.1484C59.4376 28.1719 59.484 28.2188 59.6234 28.4219C61.6736 24.7031 64.2547 21.3281 62.9011 16.375C62.795 15.9766 62.7419 15.5234 62.7751 15.1016C62.9277 13.2656 63.8632 12.7422 65.6812 13.5469Z" fill="#0F9D58"/>
<path d="M62.2645 42.4921C61.1631 35.9842 54.3156 29.7655 48.8085 28.7186C41.2312 26.7264 36.9449 32.1874 33.1363 38.0389C32.8842 38.4217 32.9638 38.9764 33.3022 39.2499C34.5562 40.2655 35.8036 41.3592 37.0311 42.5389C37.6747 43.1561 37.0378 44.3514 36.288 43.9296C34.6956 43.0389 33.1562 42.2108 31.6633 41.4452C31.3581 41.2889 30.9998 41.3983 30.7941 41.7186C26.4216 48.6249 22.1552 55.6249 17.8755 62.6092C17.6433 62.9921 17.7163 63.5155 18.0348 63.7889C18.831 64.4764 19.6272 65.1874 20.4101 65.9374C21.067 66.5624 20.4234 67.7733 19.6604 67.3436C18.6452 66.7733 17.6499 66.2342 16.6679 65.7108C16.3561 65.5467 15.9978 65.6639 15.7921 65.9921C13.1115 70.3358 10.3513 74.6092 7.70386 78.9764C4.00809 85.0624 0.790051 93.4921 2.56827 96.5077C4.18724 99.2655 12.2954 97.7421 18.2338 92.2108C19.8528 90.703 21.5845 89.3671 23.2765 87.9686C23.5618 87.7342 23.6613 87.2967 23.522 86.9217C23.1106 85.8514 22.6793 84.7655 22.2348 83.6561C21.8765 82.7655 22.8917 82.0155 23.4158 82.7811C24.013 83.6405 24.5836 84.5155 25.1277 85.3905C25.3599 85.7655 25.7979 85.8514 26.123 85.578C32.0747 80.6014 38.0529 75.6639 44.071 70.8046C44.3563 70.578 44.4625 70.1483 44.3231 69.7733C43.653 67.9608 42.9298 66.0858 42.1468 64.1483C41.7885 63.2655 42.8037 62.5155 43.3279 63.2733C44.3961 64.8202 45.3914 66.3983 46.307 67.9842C46.5326 68.3749 46.9772 68.4764 47.3023 68.2108C48.7952 67.0155 50.2815 65.8124 51.781 64.6249C58.582 59.2342 63.1404 52.7499 62.2645 42.4921Z" fill="#F57C00"/>
</g>
<defs>
<clipPath id="clip0_674_3004">
<rect width="84.9297" height="100" fill="white"/>
</clipPath>
</defs>
</svg>
