<svg width="93" height="80" viewBox="0 0 93 80" fill="none" xmlns="http://www.w3.org/2000/svg">
<path d="M0 80L46.3158 0L92.6316 80H0ZM14.5263 71.5789H78.1053L46.3158 16.8421L14.5263 71.5789ZM46.3158 67.3684C47.5088 67.3684 48.5095 66.9642 49.3179 66.1558C50.1235 65.3502 50.5263 64.3509 50.5263 63.1579C50.5263 61.9649 50.1235 60.9656 49.3179 60.16C48.5095 59.3516 47.5088 58.9474 46.3158 58.9474C45.1228 58.9474 44.1235 59.3516 43.3179 60.16C42.5095 60.9656 42.1053 61.9649 42.1053 63.1579C42.1053 64.3509 42.5095 65.3502 43.3179 66.1558C44.1235 66.9642 45.1228 67.3684 46.3158 67.3684ZM42.1053 54.7368H50.5263V33.6842H42.1053V54.7368Z" fill="#BF4E30"/>
</svg>
